<?xml version="1.0" encoding="utf-8" standalone="no"?>
<!DOCTYPE svg PUBLIC "-//W3C//DTD SVG 1.1//EN"
  "http://www.w3.org/Graphics/SVG/1.1/DTD/svg11.dtd">
<svg xmlns:xlink="http://www.w3.org/1999/xlink" width="1382.4pt" height="706.32pt" viewBox="0 0 1382.4 706.32" xmlns="http://www.w3.org/2000/svg" version="1.1">
 <metadata>
  <rdf:RDF xmlns:dc="http://purl.org/dc/elements/1.1/" xmlns:cc="http://creativecommons.org/ns#" xmlns:rdf="http://www.w3.org/1999/02/22-rdf-syntax-ns#">
   <cc:Work>
    <dc:type rdf:resource="http://purl.org/dc/dcmitype/StillImage"/>
    <dc:date>2022-09-08T21:42:03.189336</dc:date>
    <dc:format>image/svg+xml</dc:format>
    <dc:creator>
     <cc:Agent>
      <dc:title>Matplotlib v3.5.1, https://matplotlib.org/</dc:title>
     </cc:Agent>
    </dc:creator>
   </cc:Work>
  </rdf:RDF>
 </metadata>
 <defs>
  <style type="text/css">*{stroke-linejoin: round; stroke-linecap: butt}</style>
 </defs>
 <g id="figure_1">
  <g id="patch_1">
   <path d="M 0 706.32 
L 1382.4 706.32 
L 1382.4 0 
L 0 0 
z
" style="fill: #ffffff"/>
  </g>
  <g id="axes_1">
   <g id="patch_2">
    <path d="M 172.8 331.9704 
L 487.905882 331.9704 
L 487.905882 84.7584 
L 172.8 84.7584 
z
" style="fill: #ffffff"/>
   </g>
   <g id="PathCollection_1">
    <path d="M 471.25478 275.044483 
C 472.15835 275.044483 473.025035 274.685491 473.663956 274.04657 
C 474.302877 273.407649 474.66187 272.540964 474.66187 271.637393 
C 474.66187 270.733822 474.302877 269.867137 473.663956 269.228216 
C 473.025035 268.589295 472.15835 268.230303 471.25478 268.230303 
C 470.351209 268.230303 469.484524 268.589295 468.845603 269.228216 
C 468.206682 269.867137 467.847689 270.733822 467.847689 271.637393 
C 467.847689 272.540964 468.206682 273.407649 468.845603 274.04657 
C 469.484524 274.685491 470.351209 275.044483 471.25478 275.044483 
z
" clip-path="url(#pa2c8199313)" style="fill: #3b518b; stroke: #3b518b"/>
    <path d="M 364.739647 255.533607 
C 365.56286 255.533607 366.352468 255.206541 366.934568 254.624441 
C 367.516668 254.04234 367.843735 253.252733 367.843735 252.429519 
C 367.843735 251.606305 367.516668 250.816697 366.934568 250.234597 
C 366.352468 249.652497 365.56286 249.325431 364.739647 249.325431 
C 363.916433 249.325431 363.126825 249.652497 362.544725 250.234597 
C 361.962625 250.816697 361.635558 251.606305 361.635558 252.429519 
C 361.635558 253.252733 361.962625 254.04234 362.544725 254.624441 
C 363.126825 255.206541 363.916433 255.533607 364.739647 255.533607 
z
" clip-path="url(#pa2c8199313)" style="fill: #3f4889; stroke: #3f4889"/>
    <path d="M 337.954671 173.627498 
C 338.990319 173.627498 339.983689 173.216031 340.716003 172.483717 
C 341.448317 171.751403 341.859784 170.758033 341.859784 169.722385 
C 341.859784 168.686737 341.448317 167.693367 340.716003 166.961053 
C 339.983689 166.22874 338.990319 165.817272 337.954671 165.817272 
C 336.919023 165.817272 335.925653 166.22874 335.193339 166.961053 
C 334.461025 167.693367 334.049558 168.686737 334.049558 169.722385 
C 334.049558 170.758033 334.461025 171.751403 335.193339 172.483717 
C 335.925653 173.216031 336.919023 173.627498 337.954671 173.627498 
z
" clip-path="url(#pa2c8199313)" style="fill: #3d4d8a; stroke: #3d4d8a"/>
    <path d="M 183.553563 222.27016 
C 184.610544 222.27016 185.624376 221.850217 186.371774 221.102818 
C 187.119172 220.35542 187.539115 219.341588 187.539115 218.284607 
C 187.539115 217.227627 187.119172 216.213795 186.371774 215.466396 
C 185.624376 214.718998 184.610544 214.299055 183.553563 214.299055 
C 182.496582 214.299055 181.48275 214.718998 180.735352 215.466396 
C 179.987954 216.213795 179.568011 217.227627 179.568011 218.284607 
C 179.568011 219.341588 179.987954 220.35542 180.735352 221.102818 
C 181.48275 221.850217 182.496582 222.27016 183.553563 222.27016 
z
" clip-path="url(#pa2c8199313)" style="fill: #20928c; stroke: #20928c"/>
    <path d="M 308.501278 259.751227 
C 309.527729 259.751227 310.512277 259.343414 311.238088 258.617603 
C 311.963898 257.891793 312.371712 256.907244 312.371712 255.880793 
C 312.371712 254.854342 311.963898 253.869793 311.238088 253.143983 
C 310.512277 252.418172 309.527729 252.010359 308.501278 252.010359 
C 307.474826 252.010359 306.490278 252.418172 305.764467 253.143983 
C 305.038657 253.869793 304.630844 254.854342 304.630844 255.880793 
C 304.630844 256.907244 305.038657 257.891793 305.764467 258.617603 
C 306.490278 259.343414 307.474826 259.751227 308.501278 259.751227 
z
" clip-path="url(#pa2c8199313)" style="fill: #38588c; stroke: #38588c"/>
    <path d="M 302.406281 226.447406 
C 303.431667 226.447406 304.415193 226.040016 305.140251 225.314959 
C 305.865308 224.589901 306.272698 223.606375 306.272698 222.580989 
C 306.272698 221.555603 305.865308 220.572076 305.140251 219.847019 
C 304.415193 219.121962 303.431667 218.714572 302.406281 218.714572 
C 301.380895 218.714572 300.397368 219.121962 299.672311 219.847019 
C 298.947254 220.572076 298.539864 221.555603 298.539864 222.580989 
C 298.539864 223.606375 298.947254 224.589901 299.672311 225.314959 
C 300.397368 226.040016 301.380895 226.447406 302.406281 226.447406 
z
" clip-path="url(#pa2c8199313)" style="fill: #67cc5c; stroke: #67cc5c"/>
    <path d="M 323.834859 165.451535 
C 324.665965 165.451535 325.463144 165.121333 326.050824 164.533653 
C 326.638505 163.945972 326.968707 163.148794 326.968707 162.317688 
C 326.968707 161.486581 326.638505 160.689403 326.050824 160.101723 
C 325.463144 159.514042 324.665965 159.18384 323.834859 159.18384 
C 323.003753 159.18384 322.206575 159.514042 321.618894 160.101723 
C 321.031213 160.689403 320.701011 161.486581 320.701011 162.317688 
C 320.701011 163.148794 321.031213 163.945972 321.618894 164.533653 
C 322.206575 165.121333 323.003753 165.451535 323.834859 165.451535 
z
" clip-path="url(#pa2c8199313)" style="fill: #21a685; stroke: #21a685"/>
    <path d="M 280.960041 90.056761 
C 281.97363 90.056761 282.945842 89.654057 283.662557 88.937342 
C 284.379273 88.220626 284.781976 87.248414 284.781976 86.234825 
C 284.781976 85.221236 284.379273 84.249025 283.662557 83.532309 
C 282.945842 82.815593 281.97363 82.41289 280.960041 82.41289 
C 279.946452 82.41289 278.97424 82.815593 278.257524 83.532309 
C 277.540809 84.249025 277.138105 85.221236 277.138105 86.234825 
C 277.138105 87.248414 277.540809 88.220626 278.257524 88.937342 
C 278.97424 89.654057 279.946452 90.056761 280.960041 90.056761 
z
" clip-path="url(#pa2c8199313)" style="fill: #21918c; stroke: #21918c"/>
    <path d="M 326.9011 288.300039 
C 327.708666 288.300039 328.483265 287.979189 329.054301 287.408154 
C 329.625336 286.837119 329.946185 286.06252 329.946185 285.254954 
C 329.946185 284.447388 329.625336 283.672789 329.054301 283.101754 
C 328.483265 282.530719 327.708666 282.209869 326.9011 282.209869 
C 326.093535 282.209869 325.318936 282.530719 324.7479 283.101754 
C 324.176865 283.672789 323.856016 284.447388 323.856016 285.254954 
C 323.856016 286.06252 324.176865 286.837119 324.7479 287.408154 
C 325.318936 287.979189 326.093535 288.300039 326.9011 288.300039 
z
" clip-path="url(#pa2c8199313)" style="fill: #25ab82; stroke: #25ab82"/>
    <path d="M 292.759389 250.692416 
C 293.717719 250.692416 294.636928 250.311667 295.31457 249.634025 
C 295.992212 248.956383 296.372961 248.037175 296.372961 247.078844 
C 296.372961 246.120514 295.992212 245.201305 295.31457 244.523663 
C 294.636928 243.846021 293.717719 243.465273 292.759389 243.465273 
C 291.801059 243.465273 290.88185 243.846021 290.204208 244.523663 
C 289.526566 245.201305 289.145817 246.120514 289.145817 247.078844 
C 289.145817 248.037175 289.526566 248.956383 290.204208 249.634025 
C 290.88185 250.311667 291.801059 250.692416 292.759389 250.692416 
z
" clip-path="url(#pa2c8199313)" style="fill: #32658e; stroke: #32658e"/>
    <path d="M 226.851313 261.046941 
C 227.648881 261.046941 228.41389 260.730064 228.977856 260.166098 
C 229.541821 259.602133 229.858698 258.837124 229.858698 258.039556 
C 229.858698 257.241988 229.541821 256.476979 228.977856 255.913013 
C 228.41389 255.349048 227.648881 255.032171 226.851313 255.032171 
C 226.053745 255.032171 225.288736 255.349048 224.724771 255.913013 
C 224.160805 256.476979 223.843928 257.241988 223.843928 258.039556 
C 223.843928 258.837124 224.160805 259.602133 224.724771 260.166098 
C 225.288736 260.730064 226.053745 261.046941 226.851313 261.046941 
z
" clip-path="url(#pa2c8199313)" style="fill: #5ec962; stroke: #5ec962"/>
    <path d="M 400.04037 361.18515 
C 400.919294 361.18515 401.762337 360.83595 402.38383 360.214457 
C 403.005323 359.592964 403.354523 358.749921 403.354523 357.870997 
C 403.354523 356.992074 403.005323 356.14903 402.38383 355.527538 
C 401.762337 354.906045 400.919294 354.556845 400.04037 354.556845 
C 399.161447 354.556845 398.318403 354.906045 397.69691 355.527538 
C 397.075418 356.14903 396.726218 356.992074 396.726218 357.870997 
C 396.726218 358.749921 397.075418 359.592964 397.69691 360.214457 
C 398.318403 360.83595 399.161447 361.18515 400.04037 361.18515 
z
" clip-path="url(#pa2c8199313)" style="fill: #42be71; stroke: #42be71"/>
    <path d="M 399.780066 267.636932 
C 400.358053 267.636932 400.912446 267.407295 401.321144 266.998597 
C 401.729843 266.589898 401.95948 266.035506 401.95948 265.457518 
C 401.95948 264.879531 401.729843 264.325139 401.321144 263.91644 
C 400.912446 263.507741 400.358053 263.278104 399.780066 263.278104 
C 399.202079 263.278104 398.647686 263.507741 398.238988 263.91644 
C 397.830289 264.325139 397.600652 264.879531 397.600652 265.457518 
C 397.600652 266.035506 397.830289 266.589898 398.238988 266.998597 
C 398.647686 267.407295 399.202079 267.636932 399.780066 267.636932 
z
" clip-path="url(#pa2c8199313)" style="fill: #27ad81; stroke: #27ad81"/>
    <path d="M 465.027073 274.416705 
C 465.76267 274.416705 466.468238 274.124449 466.988384 273.604304 
C 467.508529 273.084158 467.800785 272.378591 467.800785 271.642994 
C 467.800785 270.907397 467.508529 270.201829 466.988384 269.681683 
C 466.468238 269.161538 465.76267 268.869282 465.027073 268.869282 
C 464.291476 268.869282 463.585909 269.161538 463.065763 269.681683 
C 462.545618 270.201829 462.253362 270.907397 462.253362 271.642994 
C 462.253362 272.378591 462.545618 273.084158 463.065763 273.604304 
C 463.585909 274.124449 464.291476 274.416705 465.027073 274.416705 
z
" clip-path="url(#pa2c8199313)" style="fill: #24878e; stroke: #24878e"/>
    <path d="M 334.294415 143.319433 
C 335.466677 143.319433 336.591084 142.853688 337.419998 142.024774 
C 338.248913 141.195859 338.714657 140.071452 338.714657 138.89919 
C 338.714657 137.726928 338.248913 136.602521 337.419998 135.773607 
C 336.591084 134.944692 335.466677 134.478948 334.294415 134.478948 
C 333.122153 134.478948 331.997746 134.944692 331.168832 135.773607 
C 330.339917 136.602521 329.874173 137.726928 329.874173 138.89919 
C 329.874173 140.071452 330.339917 141.195859 331.168832 142.024774 
C 331.997746 142.853688 333.122153 143.319433 334.294415 143.319433 
z
" clip-path="url(#pa2c8199313)" style="fill: #42be71; stroke: #42be71"/>
    <path d="M 298.473883 219.255159 
C 299.200026 219.255159 299.896526 218.966659 300.409986 218.453199 
C 300.923447 217.939738 301.211947 217.243238 301.211947 216.517095 
C 301.211947 215.790952 300.923447 215.094452 300.409986 214.580992 
C 299.896526 214.067531 299.200026 213.779032 298.473883 213.779032 
C 297.74774 213.779032 297.05124 214.067531 296.537779 214.580992 
C 296.024319 215.094452 295.735819 215.790952 295.735819 216.517095 
C 295.735819 217.243238 296.024319 217.939738 296.537779 218.453199 
C 297.05124 218.966659 297.74774 219.255159 298.473883 219.255159 
z
" clip-path="url(#pa2c8199313)" style="fill: #2ab07f; stroke: #2ab07f"/>
    <path d="M 287.391409 312.559552 
C 288.418075 312.559552 289.402828 312.151653 290.12879 311.425691 
C 290.854752 310.699729 291.262651 309.714976 291.262651 308.68831 
C 291.262651 307.661645 290.854752 306.676891 290.12879 305.950929 
C 289.402828 305.224967 288.418075 304.817069 287.391409 304.817069 
C 286.364744 304.817069 285.37999 305.224967 284.654028 305.950929 
C 283.928066 306.676891 283.520168 307.661645 283.520168 308.68831 
C 283.520168 309.714976 283.928066 310.699729 284.654028 311.425691 
C 285.37999 312.151653 286.364744 312.559552 287.391409 312.559552 
z
" clip-path="url(#pa2c8199313)" style="fill: #20a386; stroke: #20a386"/>
    <path d="M 208.526916 172.182128 
C 209.530501 172.182128 210.493116 171.783399 211.202757 171.073758 
C 211.912399 170.364117 212.311127 169.401501 212.311127 168.397917 
C 212.311127 167.394333 211.912399 166.431717 211.202757 165.722076 
C 210.493116 165.012435 209.530501 164.613707 208.526916 164.613707 
C 207.523332 164.613707 206.560717 165.012435 205.851076 165.722076 
C 205.141434 166.431717 204.742706 167.394333 204.742706 168.397917 
C 204.742706 169.401501 205.141434 170.364117 205.851076 171.073758 
C 206.560717 171.783399 207.523332 172.182128 208.526916 172.182128 
z
" clip-path="url(#pa2c8199313)" style="fill: #5ac864; stroke: #5ac864"/>
    <path d="M 407.74038 234.321785 
C 408.784958 234.321785 409.786893 233.90677 410.525521 233.168142 
C 411.264148 232.429514 411.679163 231.427579 411.679163 230.383002 
C 411.679163 229.338424 411.264148 228.336489 410.525521 227.597862 
C 409.786893 226.859234 408.784958 226.444219 407.74038 226.444219 
C 406.695803 226.444219 405.693868 226.859234 404.95524 227.597862 
C 404.216613 228.336489 403.801598 229.338424 403.801598 230.383002 
C 403.801598 231.427579 404.216613 232.429514 404.95524 233.168142 
C 405.693868 233.90677 406.695803 234.321785 407.74038 234.321785 
z
" clip-path="url(#pa2c8199313)" style="fill: #1f9f88; stroke: #1f9f88"/>
    <path d="M 243.614719 319.482512 
C 244.5129 319.482512 245.374415 319.125661 246.009525 318.490551 
C 246.644635 317.855441 247.001486 316.993927 247.001486 316.095746 
C 247.001486 315.197564 246.644635 314.33605 246.009525 313.70094 
C 245.374415 313.06583 244.5129 312.708979 243.614719 312.708979 
C 242.716538 312.708979 241.855023 313.06583 241.219914 313.70094 
C 240.584804 314.33605 240.227953 315.197564 240.227953 316.095746 
C 240.227953 316.993927 240.584804 317.855441 241.219914 318.490551 
C 241.855023 319.125661 242.716538 319.482512 243.614719 319.482512 
z
" clip-path="url(#pa2c8199313)" style="fill: #2b758e; stroke: #2b758e"/>
    <path d="M 236.999158 248.905987 
C 237.971618 248.905987 238.90438 248.519625 239.592013 247.831992 
C 240.279646 247.144359 240.666008 246.211598 240.666008 245.239138 
C 240.666008 244.266678 240.279646 243.333917 239.592013 242.646284 
C 238.90438 241.958651 237.971618 241.572288 236.999158 241.572288 
C 236.026698 241.572288 235.093937 241.958651 234.406304 242.646284 
C 233.718671 243.333917 233.332309 244.266678 233.332309 245.239138 
C 233.332309 246.211598 233.718671 247.144359 234.406304 247.831992 
C 235.093937 248.519625 236.026698 248.905987 236.999158 248.905987 
z
" clip-path="url(#pa2c8199313)" style="fill: #20928c; stroke: #20928c"/>
    <path d="M 314.152568 246.940901 
C 314.735909 246.940901 315.295437 246.709137 315.707922 246.296653 
C 316.120407 245.884168 316.352171 245.32464 316.352171 244.741298 
C 316.352171 244.157957 316.120407 243.598429 315.707922 243.185944 
C 315.295437 242.77346 314.735909 242.541695 314.152568 242.541695 
C 313.569226 242.541695 313.009699 242.77346 312.597214 243.185944 
C 312.184729 243.598429 311.952965 244.157957 311.952965 244.741298 
C 311.952965 245.32464 312.184729 245.884168 312.597214 246.296653 
C 313.009699 246.709137 313.569226 246.940901 314.152568 246.940901 
z
" clip-path="url(#pa2c8199313)" style="fill: #375a8c; stroke: #375a8c"/>
    <path d="M 447.426463 264.593113 
C 448.015258 264.593113 448.580017 264.359182 448.996357 263.942842 
C 449.412698 263.526501 449.646629 262.961742 449.646629 262.372948 
C 449.646629 261.784153 449.412698 261.219394 448.996357 260.803054 
C 448.580017 260.386713 448.015258 260.152782 447.426463 260.152782 
C 446.837669 260.152782 446.27291 260.386713 445.856569 260.803054 
C 445.440229 261.219394 445.206298 261.784153 445.206298 262.372948 
C 445.206298 262.961742 445.440229 263.526501 445.856569 263.942842 
C 446.27291 264.359182 446.837669 264.593113 447.426463 264.593113 
z
" clip-path="url(#pa2c8199313)" style="fill: #38598c; stroke: #38598c"/>
    <path d="M 349.000613 209.170602 
C 349.70144 209.170602 350.373658 208.89216 350.869217 208.396601 
C 351.364777 207.901041 351.643218 207.228824 351.643218 206.527997 
C 351.643218 205.82717 351.364777 205.154953 350.869217 204.659393 
C 350.373658 204.163834 349.70144 203.885392 349.000613 203.885392 
C 348.299786 203.885392 347.627569 204.163834 347.132009 204.659393 
C 346.63645 205.154953 346.358008 205.82717 346.358008 206.527997 
C 346.358008 207.228824 346.63645 207.901041 347.132009 208.396601 
C 347.627569 208.89216 348.299786 209.170602 349.000613 209.170602 
z
" clip-path="url(#pa2c8199313)" style="fill: #27ad81; stroke: #27ad81"/>
   </g>
   <g id="matplotlib.axis_1">
    <g id="xtick_1">
     <g id="line2d_1">
      <defs>
       <path id="mba874ccbbf" d="M 0 0 
L 0 3.5 
" style="stroke: #000000; stroke-width: 0.8"/>
      </defs>
      <g>
       <use xlink:href="#mba874ccbbf" x="212.188235" y="331.9704" style="stroke: #000000; stroke-width: 0.8"/>
      </g>
     </g>
     <g id="text_1">
      <!-- 1 -->
      <g transform="translate(209.688235 345.8454)scale(0.1 -0.1)">
       <defs>
        <path id="SimHei-31" d="M 1400 3600 
Q 1075 3275 575 2975 
L 575 3450 
Q 1200 3875 1600 4450 
L 1900 4450 
L 1900 150 
L 1400 150 
L 1400 3600 
z
" transform="scale(0.015625)"/>
       </defs>
       <use xlink:href="#SimHei-31"/>
      </g>
     </g>
    </g>
    <g id="xtick_2">
     <g id="line2d_2">
      <g>
       <use xlink:href="#mba874ccbbf" x="251.576471" y="331.9704" style="stroke: #000000; stroke-width: 0.8"/>
      </g>
     </g>
     <g id="text_2">
      <!-- 2 -->
      <g transform="translate(249.076471 345.8454)scale(0.1 -0.1)">
       <defs>
        <path id="SimHei-32" d="M 300 250 
Q 325 625 650 925 
Q 975 1225 1475 1862 
Q 1975 2500 2125 2850 
Q 2275 3200 2237 3450 
Q 2200 3700 2000 3862 
Q 1800 4025 1537 4000 
Q 1275 3975 1037 3800 
Q 800 3625 675 3275 
L 200 3350 
Q 400 3925 712 4187 
Q 1025 4450 1450 4475 
Q 1700 4500 1900 4462 
Q 2100 4425 2312 4287 
Q 2525 4150 2662 3875 
Q 2800 3600 2762 3212 
Q 2725 2825 2375 2287 
Q 2025 1750 1025 600 
L 2825 600 
L 2825 150 
L 300 150 
L 300 250 
z
" transform="scale(0.015625)"/>
       </defs>
       <use xlink:href="#SimHei-32"/>
      </g>
     </g>
    </g>
    <g id="xtick_3">
     <g id="line2d_3">
      <g>
       <use xlink:href="#mba874ccbbf" x="290.964706" y="331.9704" style="stroke: #000000; stroke-width: 0.8"/>
      </g>
     </g>
     <g id="text_3">
      <!-- 3 -->
      <g transform="translate(288.464706 345.8454)scale(0.1 -0.1)">
       <defs>
        <path id="SimHei-33" d="M 250 1225 
L 700 1300 
Q 800 975 1025 762 
Q 1250 550 1587 562 
Q 1925 575 2125 837 
Q 2325 1100 2300 1437 
Q 2275 1775 2037 1962 
Q 1800 2150 1275 2225 
L 1275 2550 
Q 1800 2600 2037 2825 
Q 2275 3050 2250 3412 
Q 2225 3775 1925 3937 
Q 1625 4100 1287 3975 
Q 950 3850 750 3275 
L 300 3350 
Q 450 3800 712 4100 
Q 975 4400 1425 4450 
Q 1875 4500 2212 4337 
Q 2550 4175 2687 3837 
Q 2825 3500 2725 3100 
Q 2625 2700 2150 2400 
Q 2500 2250 2687 1950 
Q 2875 1650 2812 1162 
Q 2750 675 2375 375 
Q 2000 75 1525 87 
Q 1050 100 700 387 
Q 350 675 250 1225 
z
" transform="scale(0.015625)"/>
       </defs>
       <use xlink:href="#SimHei-33"/>
      </g>
     </g>
    </g>
    <g id="xtick_4">
     <g id="line2d_4">
      <g>
       <use xlink:href="#mba874ccbbf" x="330.352941" y="331.9704" style="stroke: #000000; stroke-width: 0.8"/>
      </g>
     </g>
     <g id="text_4">
      <!-- 4 -->
      <g transform="translate(327.852941 345.8454)scale(0.1 -0.1)">
       <defs>
        <path id="SimHei-34" d="M 2000 1100 
L 75 1100 
L 75 1525 
L 2100 4450 
L 2475 4450 
L 2475 1525 
L 3075 1525 
L 3075 1100 
L 2475 1100 
L 2475 150 
L 2000 150 
L 2000 1100 
z
M 2000 1525 
L 2000 3500 
L 600 1525 
L 2000 1525 
z
" transform="scale(0.015625)"/>
       </defs>
       <use xlink:href="#SimHei-34"/>
      </g>
     </g>
    </g>
    <g id="xtick_5">
     <g id="line2d_5">
      <g>
       <use xlink:href="#mba874ccbbf" x="369.741176" y="331.9704" style="stroke: #000000; stroke-width: 0.8"/>
      </g>
     </g>
     <g id="text_5">
      <!-- 5 -->
      <g transform="translate(367.241176 345.8454)scale(0.1 -0.1)">
       <defs>
        <path id="SimHei-35" d="M 550 1325 
Q 725 650 1150 575 
Q 1575 500 1837 662 
Q 2100 825 2212 1087 
Q 2325 1350 2312 1675 
Q 2300 2000 2137 2225 
Q 1975 2450 1725 2525 
Q 1475 2600 1162 2525 
Q 850 2450 650 2175 
L 225 2225 
Q 275 2375 700 4375 
L 2675 4375 
L 2675 3925 
L 1075 3925 
Q 950 3250 825 2850 
Q 1200 3025 1525 3012 
Q 1850 3000 2150 2862 
Q 2450 2725 2587 2487 
Q 2725 2250 2787 2012 
Q 2850 1775 2837 1500 
Q 2825 1225 2725 937 
Q 2625 650 2425 462 
Q 2225 275 1937 162 
Q 1650 50 1275 75 
Q 900 100 562 350 
Q 225 600 100 1200 
L 550 1325 
z
" transform="scale(0.015625)"/>
       </defs>
       <use xlink:href="#SimHei-35"/>
      </g>
     </g>
    </g>
    <g id="xtick_6">
     <g id="line2d_6">
      <g>
       <use xlink:href="#mba874ccbbf" x="409.129412" y="331.9704" style="stroke: #000000; stroke-width: 0.8"/>
      </g>
     </g>
     <g id="text_6">
      <!-- 6 -->
      <g transform="translate(406.629412 345.8454)scale(0.1 -0.1)">
       <defs>
        <path id="SimHei-36" d="M 250 1612 
Q 275 1975 387 2225 
Q 500 2475 725 2850 
L 1750 4450 
L 2325 4450 
L 1275 2800 
Q 1950 2975 2350 2750 
Q 2750 2525 2887 2237 
Q 3025 1950 3037 1612 
Q 3050 1275 2937 950 
Q 2825 625 2537 362 
Q 2250 100 1737 75 
Q 1225 50 862 262 
Q 500 475 362 862 
Q 225 1250 250 1612 
z
M 1025 787 
Q 1250 550 1625 525 
Q 2000 500 2250 775 
Q 2500 1050 2500 1575 
Q 2500 2100 2187 2300 
Q 1875 2500 1487 2450 
Q 1100 2400 925 2075 
Q 750 1750 775 1387 
Q 800 1025 1025 787 
z
" transform="scale(0.015625)"/>
       </defs>
       <use xlink:href="#SimHei-36"/>
      </g>
     </g>
    </g>
    <g id="xtick_7">
     <g id="line2d_7">
      <g>
       <use xlink:href="#mba874ccbbf" x="448.517647" y="331.9704" style="stroke: #000000; stroke-width: 0.8"/>
      </g>
     </g>
     <g id="text_7">
      <!-- 7 -->
      <g transform="translate(446.017647 345.8454)scale(0.1 -0.1)">
       <defs>
        <path id="SimHei-37" d="M 850 150 
Q 1300 2050 2425 3925 
L 275 3925 
L 275 4375 
L 2950 4375 
L 2950 3950 
Q 1775 2050 1400 150 
L 850 150 
z
" transform="scale(0.015625)"/>
       </defs>
       <use xlink:href="#SimHei-37"/>
      </g>
     </g>
    </g>
   </g>
   <g id="matplotlib.axis_2">
    <g id="ytick_1">
     <g id="line2d_8">
      <defs>
       <path id="m288656f110" d="M 0 0 
L -3.5 0 
" style="stroke: #000000; stroke-width: 0.8"/>
      </defs>
      <g>
       <use xlink:href="#m288656f110" x="172.8" y="301.0689" style="stroke: #000000; stroke-width: 0.8"/>
      </g>
     </g>
     <g id="text_8">
      <!-- 1 -->
      <g transform="translate(160.8 304.5064)scale(0.1 -0.1)">
       <use xlink:href="#SimHei-31"/>
      </g>
     </g>
    </g>
    <g id="ytick_2">
     <g id="line2d_9">
      <g>
       <use xlink:href="#m288656f110" x="172.8" y="270.1674" style="stroke: #000000; stroke-width: 0.8"/>
      </g>
     </g>
     <g id="text_9">
      <!-- 2 -->
      <g transform="translate(160.8 273.6049)scale(0.1 -0.1)">
       <use xlink:href="#SimHei-32"/>
      </g>
     </g>
    </g>
    <g id="ytick_3">
     <g id="line2d_10">
      <g>
       <use xlink:href="#m288656f110" x="172.8" y="239.2659" style="stroke: #000000; stroke-width: 0.8"/>
      </g>
     </g>
     <g id="text_10">
      <!-- 3 -->
      <g transform="translate(160.8 242.7034)scale(0.1 -0.1)">
       <use xlink:href="#SimHei-33"/>
      </g>
     </g>
    </g>
    <g id="ytick_4">
     <g id="line2d_11">
      <g>
       <use xlink:href="#m288656f110" x="172.8" y="208.3644" style="stroke: #000000; stroke-width: 0.8"/>
      </g>
     </g>
     <g id="text_11">
      <!-- 4 -->
      <g transform="translate(160.8 211.8019)scale(0.1 -0.1)">
       <use xlink:href="#SimHei-34"/>
      </g>
     </g>
    </g>
    <g id="ytick_5">
     <g id="line2d_12">
      <g>
       <use xlink:href="#m288656f110" x="172.8" y="177.4629" style="stroke: #000000; stroke-width: 0.8"/>
      </g>
     </g>
     <g id="text_12">
      <!-- 5 -->
      <g transform="translate(160.8 180.9004)scale(0.1 -0.1)">
       <use xlink:href="#SimHei-35"/>
      </g>
     </g>
    </g>
    <g id="ytick_6">
     <g id="line2d_13">
      <g>
       <use xlink:href="#m288656f110" x="172.8" y="146.5614" style="stroke: #000000; stroke-width: 0.8"/>
      </g>
     </g>
     <g id="text_13">
      <!-- 6 -->
      <g transform="translate(160.8 149.9989)scale(0.1 -0.1)">
       <use xlink:href="#SimHei-36"/>
      </g>
     </g>
    </g>
    <g id="ytick_7">
     <g id="line2d_14">
      <g>
       <use xlink:href="#m288656f110" x="172.8" y="115.6599" style="stroke: #000000; stroke-width: 0.8"/>
      </g>
     </g>
     <g id="text_14">
      <!-- 7 -->
      <g transform="translate(160.8 119.0974)scale(0.1 -0.1)">
       <use xlink:href="#SimHei-37"/>
      </g>
     </g>
    </g>
   </g>
   <g id="patch_3">
    <path d="M 172.8 331.9704 
L 172.8 84.7584 
" style="fill: none; stroke: #000000; stroke-width: 0.8; stroke-linejoin: miter; stroke-linecap: square"/>
   </g>
   <g id="patch_4">
    <path d="M 487.905882 331.9704 
L 487.905882 84.7584 
" style="fill: none; stroke: #000000; stroke-width: 0.8; stroke-linejoin: miter; stroke-linecap: square"/>
   </g>
   <g id="patch_5">
    <path d="M 172.8 331.9704 
L 487.905882 331.9704 
" style="fill: none; stroke: #000000; stroke-width: 0.8; stroke-linejoin: miter; stroke-linecap: square"/>
   </g>
   <g id="patch_6">
    <path d="M 172.8 84.7584 
L 487.905882 84.7584 
" style="fill: none; stroke: #000000; stroke-width: 0.8; stroke-linejoin: miter; stroke-linecap: square"/>
   </g>
  </g>
  <g id="axes_2">
   <g id="patch_7">
    <path d="M 550.927059 331.9704 
L 866.032941 331.9704 
L 866.032941 84.7584 
L 550.927059 84.7584 
z
" style="fill: #ffffff"/>
   </g>
   <g id="patch_8">
    <path d="M 550.927059 331.9704 
L 590.315294 331.9704 
L 590.315294 148.888792 
L 550.927059 148.888792 
z
" clip-path="url(#pf90740da62)" style="fill: #1f77b4; stroke: #ffffff; stroke-width: 0.7; stroke-linejoin: miter"/>
   </g>
   <g id="patch_9">
    <path d="M 590.315294 331.9704 
L 629.703529 331.9704 
L 629.703529 119.970912 
L 590.315294 119.970912 
z
" clip-path="url(#pf90740da62)" style="fill: #1f77b4; stroke: #ffffff; stroke-width: 0.7; stroke-linejoin: miter"/>
   </g>
   <g id="patch_10">
    <path d="M 629.703529 331.9704 
L 669.091765 331.9704 
L 669.091765 138.685934 
L 629.703529 138.685934 
z
" clip-path="url(#pf90740da62)" style="fill: #1f77b4; stroke: #ffffff; stroke-width: 0.7; stroke-linejoin: miter"/>
   </g>
   <g id="patch_11">
    <path d="M 669.091765 331.9704 
L 708.48 331.9704 
L 708.48 186.178 
L 669.091765 186.178 
z
" clip-path="url(#pf90740da62)" style="fill: #1f77b4; stroke: #ffffff; stroke-width: 0.7; stroke-linejoin: miter"/>
   </g>
   <g id="patch_12">
    <path d="M 708.48 331.9704 
L 747.868235 331.9704 
L 747.868235 256.294037 
L 708.48 256.294037 
z
" clip-path="url(#pf90740da62)" style="fill: #1f77b4; stroke: #ffffff; stroke-width: 0.7; stroke-linejoin: miter"/>
   </g>
   <g id="patch_13">
    <path d="M 747.868235 331.9704 
L 787.256471 331.9704 
L 787.256471 194.632817 
L 747.868235 194.632817 
z
" clip-path="url(#pf90740da62)" style="fill: #1f77b4; stroke: #ffffff; stroke-width: 0.7; stroke-linejoin: miter"/>
   </g>
   <g id="patch_14">
    <path d="M 787.256471 331.9704 
L 826.644706 331.9704 
L 826.644706 126.794275 
L 787.256471 126.794275 
z
" clip-path="url(#pf90740da62)" style="fill: #1f77b4; stroke: #ffffff; stroke-width: 0.7; stroke-linejoin: miter"/>
   </g>
   <g id="patch_15">
    <path d="M 826.644706 331.9704 
L 866.032941 331.9704 
L 866.032941 148.474481 
L 826.644706 148.474481 
z
" clip-path="url(#pf90740da62)" style="fill: #1f77b4; stroke: #ffffff; stroke-width: 0.7; stroke-linejoin: miter"/>
   </g>
   <g id="matplotlib.axis_3">
    <g id="xtick_8">
     <g id="line2d_15">
      <g>
       <use xlink:href="#mba874ccbbf" x="590.315294" y="331.9704" style="stroke: #000000; stroke-width: 0.8"/>
      </g>
     </g>
     <g id="text_15">
      <!-- 1 -->
      <g transform="translate(587.815294 345.8454)scale(0.1 -0.1)">
       <use xlink:href="#SimHei-31"/>
      </g>
     </g>
    </g>
    <g id="xtick_9">
     <g id="line2d_16">
      <g>
       <use xlink:href="#mba874ccbbf" x="629.703529" y="331.9704" style="stroke: #000000; stroke-width: 0.8"/>
      </g>
     </g>
     <g id="text_16">
      <!-- 2 -->
      <g transform="translate(627.203529 345.8454)scale(0.1 -0.1)">
       <use xlink:href="#SimHei-32"/>
      </g>
     </g>
    </g>
    <g id="xtick_10">
     <g id="line2d_17">
      <g>
       <use xlink:href="#mba874ccbbf" x="669.091765" y="331.9704" style="stroke: #000000; stroke-width: 0.8"/>
      </g>
     </g>
     <g id="text_17">
      <!-- 3 -->
      <g transform="translate(666.591765 345.8454)scale(0.1 -0.1)">
       <use xlink:href="#SimHei-33"/>
      </g>
     </g>
    </g>
    <g id="xtick_11">
     <g id="line2d_18">
      <g>
       <use xlink:href="#mba874ccbbf" x="708.48" y="331.9704" style="stroke: #000000; stroke-width: 0.8"/>
      </g>
     </g>
     <g id="text_18">
      <!-- 4 -->
      <g transform="translate(705.98 345.8454)scale(0.1 -0.1)">
       <use xlink:href="#SimHei-34"/>
      </g>
     </g>
    </g>
    <g id="xtick_12">
     <g id="line2d_19">
      <g>
       <use xlink:href="#mba874ccbbf" x="747.868235" y="331.9704" style="stroke: #000000; stroke-width: 0.8"/>
      </g>
     </g>
     <g id="text_19">
      <!-- 5 -->
      <g transform="translate(745.368235 345.8454)scale(0.1 -0.1)">
       <use xlink:href="#SimHei-35"/>
      </g>
     </g>
    </g>
    <g id="xtick_13">
     <g id="line2d_20">
      <g>
       <use xlink:href="#mba874ccbbf" x="787.256471" y="331.9704" style="stroke: #000000; stroke-width: 0.8"/>
      </g>
     </g>
     <g id="text_20">
      <!-- 6 -->
      <g transform="translate(784.756471 345.8454)scale(0.1 -0.1)">
       <use xlink:href="#SimHei-36"/>
      </g>
     </g>
    </g>
    <g id="xtick_14">
     <g id="line2d_21">
      <g>
       <use xlink:href="#mba874ccbbf" x="826.644706" y="331.9704" style="stroke: #000000; stroke-width: 0.8"/>
      </g>
     </g>
     <g id="text_21">
      <!-- 7 -->
      <g transform="translate(824.144706 345.8454)scale(0.1 -0.1)">
       <use xlink:href="#SimHei-37"/>
      </g>
     </g>
    </g>
   </g>
   <g id="matplotlib.axis_4">
    <g id="ytick_8">
     <g id="line2d_22">
      <g>
       <use xlink:href="#m288656f110" x="550.927059" y="301.0689" style="stroke: #000000; stroke-width: 0.8"/>
      </g>
     </g>
     <g id="text_22">
      <!-- 1 -->
      <g transform="translate(538.927059 304.5064)scale(0.1 -0.1)">
       <use xlink:href="#SimHei-31"/>
      </g>
     </g>
    </g>
    <g id="ytick_9">
     <g id="line2d_23">
      <g>
       <use xlink:href="#m288656f110" x="550.927059" y="270.1674" style="stroke: #000000; stroke-width: 0.8"/>
      </g>
     </g>
     <g id="text_23">
      <!-- 2 -->
      <g transform="translate(538.927059 273.6049)scale(0.1 -0.1)">
       <use xlink:href="#SimHei-32"/>
      </g>
     </g>
    </g>
    <g id="ytick_10">
     <g id="line2d_24">
      <g>
       <use xlink:href="#m288656f110" x="550.927059" y="239.2659" style="stroke: #000000; stroke-width: 0.8"/>
      </g>
     </g>
     <g id="text_24">
      <!-- 3 -->
      <g transform="translate(538.927059 242.7034)scale(0.1 -0.1)">
       <use xlink:href="#SimHei-33"/>
      </g>
     </g>
    </g>
    <g id="ytick_11">
     <g id="line2d_25">
      <g>
       <use xlink:href="#m288656f110" x="550.927059" y="208.3644" style="stroke: #000000; stroke-width: 0.8"/>
      </g>
     </g>
     <g id="text_25">
      <!-- 4 -->
      <g transform="translate(538.927059 211.8019)scale(0.1 -0.1)">
       <use xlink:href="#SimHei-34"/>
      </g>
     </g>
    </g>
    <g id="ytick_12">
     <g id="line2d_26">
      <g>
       <use xlink:href="#m288656f110" x="550.927059" y="177.4629" style="stroke: #000000; stroke-width: 0.8"/>
      </g>
     </g>
     <g id="text_26">
      <!-- 5 -->
      <g transform="translate(538.927059 180.9004)scale(0.1 -0.1)">
       <use xlink:href="#SimHei-35"/>
      </g>
     </g>
    </g>
    <g id="ytick_13">
     <g id="line2d_27">
      <g>
       <use xlink:href="#m288656f110" x="550.927059" y="146.5614" style="stroke: #000000; stroke-width: 0.8"/>
      </g>
     </g>
     <g id="text_27">
      <!-- 6 -->
      <g transform="translate(538.927059 149.9989)scale(0.1 -0.1)">
       <use xlink:href="#SimHei-36"/>
      </g>
     </g>
    </g>
    <g id="ytick_14">
     <g id="line2d_28">
      <g>
       <use xlink:href="#m288656f110" x="550.927059" y="115.6599" style="stroke: #000000; stroke-width: 0.8"/>
      </g>
     </g>
     <g id="text_28">
      <!-- 7 -->
      <g transform="translate(538.927059 119.0974)scale(0.1 -0.1)">
       <use xlink:href="#SimHei-37"/>
      </g>
     </g>
    </g>
   </g>
   <g id="patch_16">
    <path d="M 550.927059 331.9704 
L 550.927059 84.7584 
" style="fill: none; stroke: #000000; stroke-width: 0.8; stroke-linejoin: miter; stroke-linecap: square"/>
   </g>
   <g id="patch_17">
    <path d="M 866.032941 331.9704 
L 866.032941 84.7584 
" style="fill: none; stroke: #000000; stroke-width: 0.8; stroke-linejoin: miter; stroke-linecap: square"/>
   </g>
   <g id="patch_18">
    <path d="M 550.927059 331.9704 
L 866.032941 331.9704 
" style="fill: none; stroke: #000000; stroke-width: 0.8; stroke-linejoin: miter; stroke-linecap: square"/>
   </g>
   <g id="patch_19">
    <path d="M 550.927059 84.7584 
L 866.032941 84.7584 
" style="fill: none; stroke: #000000; stroke-width: 0.8; stroke-linejoin: miter; stroke-linecap: square"/>
   </g>
   <g id="text_29">
    <!-- 条形图 -->
    <g transform="translate(690.48 78.7584)scale(0.12 -0.12)">
     <defs>
      <path id="SimHei-6761" d="M 2700 5075 
Q 2600 5000 2400 4700 
L 5225 4700 
Q 4975 4300 4625 3875 
Q 4275 3450 3750 3050 
Q 4100 2850 4750 2687 
Q 5400 2525 6200 2525 
Q 5950 2275 5925 2000 
Q 5000 2100 4387 2300 
Q 3775 2500 3275 2825 
Q 2500 2375 1837 2175 
Q 1175 1975 575 1850 
Q 500 2125 275 2300 
Q 1250 2400 1912 2625 
Q 2575 2850 2825 3075 
Q 2400 3425 1925 3975 
Q 1600 3550 1150 3075 
Q 925 3300 725 3350 
Q 1225 3775 1625 4350 
Q 2025 4925 2125 5300 
Q 2525 5125 2700 5075 
z
M 2950 1775 
Q 2950 2000 2925 2400 
L 3475 2400 
Q 3450 1975 3450 1775 
L 4500 1775 
Q 5025 1775 5550 1800 
L 5550 1325 
Q 5025 1350 4525 1350 
L 3450 1350 
L 3450 -50 
Q 3475 -575 2450 -625 
Q 2375 -375 2225 -75 
Q 2975 -150 2950 200 
L 2950 1350 
L 1850 1350 
Q 1350 1350 825 1325 
L 825 1800 
Q 1350 1775 1850 1775 
L 2950 1775 
z
M 3300 3300 
Q 4025 3775 4325 4275 
L 2250 4275 
Q 2700 3675 3300 3300 
z
M 4200 1000 
Q 4950 575 5800 0 
Q 5650 -175 5500 -400 
Q 5150 -150 4787 100 
Q 4425 350 3925 600 
Q 4075 775 4200 1000 
z
M 2375 700 
Q 2275 600 1800 250 
Q 1325 -100 850 -400 
Q 700 -200 500 -50 
Q 825 100 1287 437 
Q 1750 775 1950 1050 
L 2375 700 
z
" transform="scale(0.015625)"/>
      <path id="SimHei-5f62" d="M 2750 4850 
Q 3350 4850 3675 4875 
L 3675 4425 
Q 3400 4450 2950 4450 
L 2950 2700 
Q 3475 2700 3725 2725 
L 3725 2250 
Q 3500 2275 2950 2275 
L 2950 500 
Q 2950 -50 2975 -350 
L 2475 -350 
Q 2500 0 2500 475 
L 2500 2275 
L 1650 2275 
Q 1600 1075 1325 437 
Q 1050 -200 825 -500 
Q 550 -300 300 -250 
Q 700 150 937 762 
Q 1175 1375 1200 2275 
Q 775 2275 425 2250 
L 425 2725 
Q 775 2700 1225 2700 
L 1225 4450 
Q 800 4450 600 4425 
L 600 4875 
Q 800 4850 1375 4850 
L 2750 4850 
z
M 6100 1275 
Q 5850 1050 5150 462 
Q 4450 -125 3800 -525 
Q 3650 -300 3400 -100 
Q 4050 175 4725 750 
Q 5400 1325 5625 1650 
Q 5800 1450 6100 1275 
z
M 2500 2700 
L 2500 4450 
L 1675 4450 
L 1675 2700 
L 2500 2700 
z
M 5875 2975 
Q 5650 2825 5187 2300 
Q 4725 1775 3900 1175 
Q 3750 1375 3475 1550 
Q 4175 1950 4625 2412 
Q 5075 2875 5375 3325 
Q 5700 3050 5875 2975 
z
M 5675 4800 
Q 5425 4575 5062 4087 
Q 4700 3600 4075 2975 
Q 3850 3150 3625 3275 
Q 4175 3750 4475 4125 
Q 4775 4500 5125 5100 
Q 5250 5025 5675 4800 
z
" transform="scale(0.015625)"/>
      <path id="SimHei-56fe" d="M 5800 4975 
Q 5775 4350 5775 3600 
L 5775 925 
Q 5775 150 5800 -600 
L 5300 -600 
L 5300 -275 
L 1125 -275 
L 1125 -650 
L 625 -650 
Q 650 125 650 950 
L 650 3600 
Q 650 4325 625 4975 
L 5800 4975 
z
M 5300 150 
L 5300 4575 
L 1125 4575 
L 1125 150 
L 5300 150 
z
M 3225 4250 
Q 3075 4100 2950 3925 
L 4625 3925 
Q 4525 3700 4300 3375 
Q 4075 3050 3600 2600 
Q 4350 2225 5075 2150 
Q 4900 1925 4775 1675 
Q 3850 1950 3225 2350 
Q 2500 1875 1675 1650 
Q 1600 1875 1400 2075 
Q 2200 2200 2875 2600 
Q 2525 2925 2375 3150 
Q 2150 2900 1900 2650 
Q 1725 2850 1525 2950 
Q 1950 3300 2250 3737 
Q 2550 4175 2675 4475 
Q 2925 4350 3225 4250 
z
M 2450 1275 
Q 3550 950 4100 725 
Q 3975 525 3850 300 
Q 2825 725 2275 850 
Q 2375 1050 2450 1275 
z
M 2925 2050 
Q 3775 1700 4075 1600 
Q 3950 1400 3850 1150 
Q 3000 1550 2700 1650 
Q 2825 1825 2925 2050 
z
M 2625 3450 
Q 3000 3025 3275 2850 
Q 3600 3100 3875 3525 
L 2675 3525 
L 2625 3450 
z
" transform="scale(0.015625)"/>
     </defs>
     <use xlink:href="#SimHei-6761"/>
     <use xlink:href="#SimHei-5f62" x="100"/>
     <use xlink:href="#SimHei-56fe" x="200"/>
    </g>
   </g>
  </g>
  <g id="axes_3">
   <g id="patch_20">
    <path d="M 929.054118 331.9704 
L 1244.16 331.9704 
L 1244.16 84.7584 
L 929.054118 84.7584 
z
" style="fill: #ffffff"/>
   </g>
   <g id="matplotlib.axis_5">
    <g id="xtick_15">
     <g id="line2d_29">
      <g>
       <use xlink:href="#mba874ccbbf" x="968.442353" y="331.9704" style="stroke: #000000; stroke-width: 0.8"/>
      </g>
     </g>
     <g id="text_30">
      <!-- 1 -->
      <g transform="translate(965.942353 345.8454)scale(0.1 -0.1)">
       <use xlink:href="#SimHei-31"/>
      </g>
     </g>
    </g>
    <g id="xtick_16">
     <g id="line2d_30">
      <g>
       <use xlink:href="#mba874ccbbf" x="1007.830588" y="331.9704" style="stroke: #000000; stroke-width: 0.8"/>
      </g>
     </g>
     <g id="text_31">
      <!-- 2 -->
      <g transform="translate(1005.330588 345.8454)scale(0.1 -0.1)">
       <use xlink:href="#SimHei-32"/>
      </g>
     </g>
    </g>
    <g id="xtick_17">
     <g id="line2d_31">
      <g>
       <use xlink:href="#mba874ccbbf" x="1047.218824" y="331.9704" style="stroke: #000000; stroke-width: 0.8"/>
      </g>
     </g>
     <g id="text_32">
      <!-- 3 -->
      <g transform="translate(1044.718824 345.8454)scale(0.1 -0.1)">
       <use xlink:href="#SimHei-33"/>
      </g>
     </g>
    </g>
    <g id="xtick_18">
     <g id="line2d_32">
      <g>
       <use xlink:href="#mba874ccbbf" x="1086.607059" y="331.9704" style="stroke: #000000; stroke-width: 0.8"/>
      </g>
     </g>
     <g id="text_33">
      <!-- 4 -->
      <g transform="translate(1084.107059 345.8454)scale(0.1 -0.1)">
       <use xlink:href="#SimHei-34"/>
      </g>
     </g>
    </g>
    <g id="xtick_19">
     <g id="line2d_33">
      <g>
       <use xlink:href="#mba874ccbbf" x="1125.995294" y="331.9704" style="stroke: #000000; stroke-width: 0.8"/>
      </g>
     </g>
     <g id="text_34">
      <!-- 5 -->
      <g transform="translate(1123.495294 345.8454)scale(0.1 -0.1)">
       <use xlink:href="#SimHei-35"/>
      </g>
     </g>
    </g>
    <g id="xtick_20">
     <g id="line2d_34">
      <g>
       <use xlink:href="#mba874ccbbf" x="1165.383529" y="331.9704" style="stroke: #000000; stroke-width: 0.8"/>
      </g>
     </g>
     <g id="text_35">
      <!-- 6 -->
      <g transform="translate(1162.883529 345.8454)scale(0.1 -0.1)">
       <use xlink:href="#SimHei-36"/>
      </g>
     </g>
    </g>
    <g id="xtick_21">
     <g id="line2d_35">
      <g>
       <use xlink:href="#mba874ccbbf" x="1204.771765" y="331.9704" style="stroke: #000000; stroke-width: 0.8"/>
      </g>
     </g>
     <g id="text_36">
      <!-- 7 -->
      <g transform="translate(1202.271765 345.8454)scale(0.1 -0.1)">
       <use xlink:href="#SimHei-37"/>
      </g>
     </g>
    </g>
   </g>
   <g id="matplotlib.axis_6">
    <g id="ytick_15">
     <g id="line2d_36">
      <g>
       <use xlink:href="#m288656f110" x="929.054118" y="301.0689" style="stroke: #000000; stroke-width: 0.8"/>
      </g>
     </g>
     <g id="text_37">
      <!-- 1 -->
      <g transform="translate(917.054118 304.5064)scale(0.1 -0.1)">
       <use xlink:href="#SimHei-31"/>
      </g>
     </g>
    </g>
    <g id="ytick_16">
     <g id="line2d_37">
      <g>
       <use xlink:href="#m288656f110" x="929.054118" y="270.1674" style="stroke: #000000; stroke-width: 0.8"/>
      </g>
     </g>
     <g id="text_38">
      <!-- 2 -->
      <g transform="translate(917.054118 273.6049)scale(0.1 -0.1)">
       <use xlink:href="#SimHei-32"/>
      </g>
     </g>
    </g>
    <g id="ytick_17">
     <g id="line2d_38">
      <g>
       <use xlink:href="#m288656f110" x="929.054118" y="239.2659" style="stroke: #000000; stroke-width: 0.8"/>
      </g>
     </g>
     <g id="text_39">
      <!-- 3 -->
      <g transform="translate(917.054118 242.7034)scale(0.1 -0.1)">
       <use xlink:href="#SimHei-33"/>
      </g>
     </g>
    </g>
    <g id="ytick_18">
     <g id="line2d_39">
      <g>
       <use xlink:href="#m288656f110" x="929.054118" y="208.3644" style="stroke: #000000; stroke-width: 0.8"/>
      </g>
     </g>
     <g id="text_40">
      <!-- 4 -->
      <g transform="translate(917.054118 211.8019)scale(0.1 -0.1)">
       <use xlink:href="#SimHei-34"/>
      </g>
     </g>
    </g>
    <g id="ytick_19">
     <g id="line2d_40">
      <g>
       <use xlink:href="#m288656f110" x="929.054118" y="177.4629" style="stroke: #000000; stroke-width: 0.8"/>
      </g>
     </g>
     <g id="text_41">
      <!-- 5 -->
      <g transform="translate(917.054118 180.9004)scale(0.1 -0.1)">
       <use xlink:href="#SimHei-35"/>
      </g>
     </g>
    </g>
    <g id="ytick_20">
     <g id="line2d_41">
      <g>
       <use xlink:href="#m288656f110" x="929.054118" y="146.5614" style="stroke: #000000; stroke-width: 0.8"/>
      </g>
     </g>
     <g id="text_42">
      <!-- 6 -->
      <g transform="translate(917.054118 149.9989)scale(0.1 -0.1)">
       <use xlink:href="#SimHei-36"/>
      </g>
     </g>
    </g>
    <g id="ytick_21">
     <g id="line2d_42">
      <g>
       <use xlink:href="#m288656f110" x="929.054118" y="115.6599" style="stroke: #000000; stroke-width: 0.8"/>
      </g>
     </g>
     <g id="text_43">
      <!-- 7 -->
      <g transform="translate(917.054118 119.0974)scale(0.1 -0.1)">
       <use xlink:href="#SimHei-37"/>
      </g>
     </g>
    </g>
   </g>
   <g id="LineCollection_1">
    <path d="M 948.748235 331.9704 
L 948.748235 148.888792 
" clip-path="url(#p539870b5eb)" style="fill: none; stroke: #1f77b4; stroke-width: 1.5"/>
    <path d="M 988.136471 331.9704 
L 988.136471 119.970912 
" clip-path="url(#p539870b5eb)" style="fill: none; stroke: #1f77b4; stroke-width: 1.5"/>
    <path d="M 1027.524706 331.9704 
L 1027.524706 138.685934 
" clip-path="url(#p539870b5eb)" style="fill: none; stroke: #1f77b4; stroke-width: 1.5"/>
    <path d="M 1066.912941 331.9704 
L 1066.912941 186.178 
" clip-path="url(#p539870b5eb)" style="fill: none; stroke: #1f77b4; stroke-width: 1.5"/>
    <path d="M 1106.301176 331.9704 
L 1106.301176 256.294037 
" clip-path="url(#p539870b5eb)" style="fill: none; stroke: #1f77b4; stroke-width: 1.5"/>
    <path d="M 1145.689412 331.9704 
L 1145.689412 194.632817 
" clip-path="url(#p539870b5eb)" style="fill: none; stroke: #1f77b4; stroke-width: 1.5"/>
    <path d="M 1185.077647 331.9704 
L 1185.077647 126.794275 
" clip-path="url(#p539870b5eb)" style="fill: none; stroke: #1f77b4; stroke-width: 1.5"/>
    <path d="M 1224.465882 331.9704 
L 1224.465882 148.474481 
" clip-path="url(#p539870b5eb)" style="fill: none; stroke: #1f77b4; stroke-width: 1.5"/>
   </g>
   <g id="line2d_43">
    <defs>
     <path id="mc77f045bc9" d="M 0 3 
C 0.795609 3 1.55874 2.683901 2.12132 2.12132 
C 2.683901 1.55874 3 0.795609 3 0 
C 3 -0.795609 2.683901 -1.55874 2.12132 -2.12132 
C 1.55874 -2.683901 0.795609 -3 0 -3 
C -0.795609 -3 -1.55874 -2.683901 -2.12132 -2.12132 
C -2.683901 -1.55874 -3 -0.795609 -3 0 
C -3 0.795609 -2.683901 1.55874 -2.12132 2.12132 
C -1.55874 2.683901 -0.795609 3 0 3 
z
" style="stroke: #1f77b4"/>
    </defs>
    <g clip-path="url(#p539870b5eb)">
     <use xlink:href="#mc77f045bc9" x="948.748235" y="148.888792" style="fill: #1f77b4; stroke: #1f77b4"/>
     <use xlink:href="#mc77f045bc9" x="988.136471" y="119.970912" style="fill: #1f77b4; stroke: #1f77b4"/>
     <use xlink:href="#mc77f045bc9" x="1027.524706" y="138.685934" style="fill: #1f77b4; stroke: #1f77b4"/>
     <use xlink:href="#mc77f045bc9" x="1066.912941" y="186.178" style="fill: #1f77b4; stroke: #1f77b4"/>
     <use xlink:href="#mc77f045bc9" x="1106.301176" y="256.294037" style="fill: #1f77b4; stroke: #1f77b4"/>
     <use xlink:href="#mc77f045bc9" x="1145.689412" y="194.632817" style="fill: #1f77b4; stroke: #1f77b4"/>
     <use xlink:href="#mc77f045bc9" x="1185.077647" y="126.794275" style="fill: #1f77b4; stroke: #1f77b4"/>
     <use xlink:href="#mc77f045bc9" x="1224.465882" y="148.474481" style="fill: #1f77b4; stroke: #1f77b4"/>
    </g>
   </g>
   <g id="line2d_44">
    <path d="M 948.748235 331.9704 
L 1224.465882 331.9704 
" clip-path="url(#p539870b5eb)" style="fill: none; stroke: #d62728; stroke-width: 1.5; stroke-linecap: square"/>
   </g>
   <g id="patch_21">
    <path d="M 929.054118 331.9704 
L 929.054118 84.7584 
" style="fill: none; stroke: #000000; stroke-width: 0.8; stroke-linejoin: miter; stroke-linecap: square"/>
   </g>
   <g id="patch_22">
    <path d="M 1244.16 331.9704 
L 1244.16 84.7584 
" style="fill: none; stroke: #000000; stroke-width: 0.8; stroke-linejoin: miter; stroke-linecap: square"/>
   </g>
   <g id="patch_23">
    <path d="M 929.054118 331.9704 
L 1244.16 331.9704 
" style="fill: none; stroke: #000000; stroke-width: 0.8; stroke-linejoin: miter; stroke-linecap: square"/>
   </g>
   <g id="patch_24">
    <path d="M 929.054118 84.7584 
L 1244.16 84.7584 
" style="fill: none; stroke: #000000; stroke-width: 0.8; stroke-linejoin: miter; stroke-linecap: square"/>
   </g>
   <g id="text_44">
    <!-- 茎图 -->
    <g transform="translate(1074.607059 78.7584)scale(0.12 -0.12)">
     <defs>
      <path id="SimHei-830e" d="M 5175 3325 
L 5175 2975 
Q 4250 2625 3975 2450 
Q 4550 2275 4987 2125 
Q 5425 1975 6000 1725 
Q 5875 1575 5725 1275 
Q 5200 1550 4700 1762 
Q 4200 1975 3500 2200 
Q 3050 2000 2337 1762 
Q 1625 1525 750 1325 
Q 700 1575 500 1800 
Q 1250 1875 2237 2187 
Q 3225 2500 4025 2950 
L 1675 2950 
Q 1550 2950 1100 2925 
L 1100 3350 
Q 1550 3325 1675 3325 
L 5175 3325 
z
M 4175 1400 
Q 4525 1400 5075 1425 
L 5075 975 
Q 4650 1000 4175 1000 
L 3450 1000 
L 3450 0 
L 4925 0 
Q 5550 0 5975 25 
L 5975 -425 
Q 5525 -400 4900 -400 
L 1475 -400 
Q 1075 -400 450 -425 
L 450 25 
Q 1075 0 1525 0 
L 2975 0 
L 2975 1000 
L 2250 1000 
Q 1875 1000 1450 975 
L 1450 1425 
Q 1875 1400 2225 1400 
L 4175 1400 
z
M 2525 5150 
Q 2500 4850 2500 4525 
L 3925 4525 
Q 3925 4850 3900 5175 
L 4400 5175 
Q 4375 4900 4375 4525 
L 5175 4525 
Q 5575 4525 6025 4550 
L 6025 4100 
Q 5600 4125 5225 4125 
L 4375 4125 
Q 4375 3800 4400 3550 
L 3925 3550 
L 3925 4125 
L 2500 4125 
L 2500 3525 
L 2025 3525 
Q 2050 3825 2050 4125 
L 1175 4125 
Q 850 4125 425 4100 
L 425 4550 
Q 800 4525 1150 4525 
L 2050 4525 
Q 2050 4850 2025 5150 
L 2525 5150 
z
" transform="scale(0.015625)"/>
     </defs>
     <use xlink:href="#SimHei-830e"/>
     <use xlink:href="#SimHei-56fe" x="100"/>
    </g>
   </g>
  </g>
  <g id="axes_4">
   <g id="patch_25">
    <path d="M 172.8 628.6248 
L 487.905882 628.6248 
L 487.905882 381.4128 
L 172.8 381.4128 
z
" style="fill: #ffffff"/>
   </g>
   <g id="matplotlib.axis_7">
    <g id="xtick_22">
     <g id="line2d_45">
      <g>
       <use xlink:href="#mba874ccbbf" x="212.188235" y="628.6248" style="stroke: #000000; stroke-width: 0.8"/>
      </g>
     </g>
     <g id="text_45">
      <!-- 1 -->
      <g transform="translate(209.688235 642.4998)scale(0.1 -0.1)">
       <use xlink:href="#SimHei-31"/>
      </g>
     </g>
    </g>
    <g id="xtick_23">
     <g id="line2d_46">
      <g>
       <use xlink:href="#mba874ccbbf" x="251.576471" y="628.6248" style="stroke: #000000; stroke-width: 0.8"/>
      </g>
     </g>
     <g id="text_46">
      <!-- 2 -->
      <g transform="translate(249.076471 642.4998)scale(0.1 -0.1)">
       <use xlink:href="#SimHei-32"/>
      </g>
     </g>
    </g>
    <g id="xtick_24">
     <g id="line2d_47">
      <g>
       <use xlink:href="#mba874ccbbf" x="290.964706" y="628.6248" style="stroke: #000000; stroke-width: 0.8"/>
      </g>
     </g>
     <g id="text_47">
      <!-- 3 -->
      <g transform="translate(288.464706 642.4998)scale(0.1 -0.1)">
       <use xlink:href="#SimHei-33"/>
      </g>
     </g>
    </g>
    <g id="xtick_25">
     <g id="line2d_48">
      <g>
       <use xlink:href="#mba874ccbbf" x="330.352941" y="628.6248" style="stroke: #000000; stroke-width: 0.8"/>
      </g>
     </g>
     <g id="text_48">
      <!-- 4 -->
      <g transform="translate(327.852941 642.4998)scale(0.1 -0.1)">
       <use xlink:href="#SimHei-34"/>
      </g>
     </g>
    </g>
    <g id="xtick_26">
     <g id="line2d_49">
      <g>
       <use xlink:href="#mba874ccbbf" x="369.741176" y="628.6248" style="stroke: #000000; stroke-width: 0.8"/>
      </g>
     </g>
     <g id="text_49">
      <!-- 5 -->
      <g transform="translate(367.241176 642.4998)scale(0.1 -0.1)">
       <use xlink:href="#SimHei-35"/>
      </g>
     </g>
    </g>
    <g id="xtick_27">
     <g id="line2d_50">
      <g>
       <use xlink:href="#mba874ccbbf" x="409.129412" y="628.6248" style="stroke: #000000; stroke-width: 0.8"/>
      </g>
     </g>
     <g id="text_50">
      <!-- 6 -->
      <g transform="translate(406.629412 642.4998)scale(0.1 -0.1)">
       <use xlink:href="#SimHei-36"/>
      </g>
     </g>
    </g>
    <g id="xtick_28">
     <g id="line2d_51">
      <g>
       <use xlink:href="#mba874ccbbf" x="448.517647" y="628.6248" style="stroke: #000000; stroke-width: 0.8"/>
      </g>
     </g>
     <g id="text_51">
      <!-- 7 -->
      <g transform="translate(446.017647 642.4998)scale(0.1 -0.1)">
       <use xlink:href="#SimHei-37"/>
      </g>
     </g>
    </g>
   </g>
   <g id="matplotlib.axis_8">
    <g id="ytick_22">
     <g id="line2d_52">
      <g>
       <use xlink:href="#m288656f110" x="172.8" y="597.7233" style="stroke: #000000; stroke-width: 0.8"/>
      </g>
     </g>
     <g id="text_52">
      <!-- 1 -->
      <g transform="translate(160.8 601.1608)scale(0.1 -0.1)">
       <use xlink:href="#SimHei-31"/>
      </g>
     </g>
    </g>
    <g id="ytick_23">
     <g id="line2d_53">
      <g>
       <use xlink:href="#m288656f110" x="172.8" y="566.8218" style="stroke: #000000; stroke-width: 0.8"/>
      </g>
     </g>
     <g id="text_53">
      <!-- 2 -->
      <g transform="translate(160.8 570.2593)scale(0.1 -0.1)">
       <use xlink:href="#SimHei-32"/>
      </g>
     </g>
    </g>
    <g id="ytick_24">
     <g id="line2d_54">
      <g>
       <use xlink:href="#m288656f110" x="172.8" y="535.9203" style="stroke: #000000; stroke-width: 0.8"/>
      </g>
     </g>
     <g id="text_54">
      <!-- 3 -->
      <g transform="translate(160.8 539.3578)scale(0.1 -0.1)">
       <use xlink:href="#SimHei-33"/>
      </g>
     </g>
    </g>
    <g id="ytick_25">
     <g id="line2d_55">
      <g>
       <use xlink:href="#m288656f110" x="172.8" y="505.0188" style="stroke: #000000; stroke-width: 0.8"/>
      </g>
     </g>
     <g id="text_55">
      <!-- 4 -->
      <g transform="translate(160.8 508.4563)scale(0.1 -0.1)">
       <use xlink:href="#SimHei-34"/>
      </g>
     </g>
    </g>
    <g id="ytick_26">
     <g id="line2d_56">
      <g>
       <use xlink:href="#m288656f110" x="172.8" y="474.1173" style="stroke: #000000; stroke-width: 0.8"/>
      </g>
     </g>
     <g id="text_56">
      <!-- 5 -->
      <g transform="translate(160.8 477.5548)scale(0.1 -0.1)">
       <use xlink:href="#SimHei-35"/>
      </g>
     </g>
    </g>
    <g id="ytick_27">
     <g id="line2d_57">
      <g>
       <use xlink:href="#m288656f110" x="172.8" y="443.2158" style="stroke: #000000; stroke-width: 0.8"/>
      </g>
     </g>
     <g id="text_57">
      <!-- 6 -->
      <g transform="translate(160.8 446.6533)scale(0.1 -0.1)">
       <use xlink:href="#SimHei-36"/>
      </g>
     </g>
    </g>
    <g id="ytick_28">
     <g id="line2d_58">
      <g>
       <use xlink:href="#m288656f110" x="172.8" y="412.3143" style="stroke: #000000; stroke-width: 0.8"/>
      </g>
     </g>
     <g id="text_58">
      <!-- 7 -->
      <g transform="translate(160.8 415.7518)scale(0.1 -0.1)">
       <use xlink:href="#SimHei-37"/>
      </g>
     </g>
    </g>
   </g>
   <g id="line2d_59">
    <path d="M 192.494118 445.543192 
L 192.494118 416.625312 
L 231.882353 416.625312 
L 231.882353 435.340334 
L 271.270588 435.340334 
L 271.270588 482.8324 
L 310.658824 482.8324 
L 310.658824 552.948437 
L 350.047059 552.948437 
L 350.047059 491.287217 
L 389.435294 491.287217 
L 389.435294 423.448675 
L 428.823529 423.448675 
L 428.823529 445.128881 
L 468.211765 445.128881 
" clip-path="url(#pe63c2d4d08)" style="fill: none; stroke: #1f77b4; stroke-width: 2.5; stroke-linecap: square"/>
   </g>
   <g id="patch_26">
    <path d="M 172.8 628.6248 
L 172.8 381.4128 
" style="fill: none; stroke: #000000; stroke-width: 0.8; stroke-linejoin: miter; stroke-linecap: square"/>
   </g>
   <g id="patch_27">
    <path d="M 487.905882 628.6248 
L 487.905882 381.4128 
" style="fill: none; stroke: #000000; stroke-width: 0.8; stroke-linejoin: miter; stroke-linecap: square"/>
   </g>
   <g id="patch_28">
    <path d="M 172.8 628.6248 
L 487.905882 628.6248 
" style="fill: none; stroke: #000000; stroke-width: 0.8; stroke-linejoin: miter; stroke-linecap: square"/>
   </g>
   <g id="patch_29">
    <path d="M 172.8 381.4128 
L 487.905882 381.4128 
" style="fill: none; stroke: #000000; stroke-width: 0.8; stroke-linejoin: miter; stroke-linecap: square"/>
   </g>
   <g id="text_59">
    <!-- 阶梯图 -->
    <g transform="translate(312.352941 375.4128)scale(0.12 -0.12)">
     <defs>
      <path id="SimHei-9636" d="M 2450 4850 
Q 2350 4575 2175 3962 
Q 2000 3350 1825 2800 
Q 2225 2225 2312 1912 
Q 2400 1600 2375 1250 
Q 2350 900 2137 725 
Q 1925 550 1400 475 
Q 1300 925 1200 1075 
Q 1725 1025 1837 1225 
Q 1950 1425 1875 1775 
Q 1800 2125 1350 2725 
Q 1700 3825 1825 4400 
L 975 4400 
L 975 -500 
L 500 -500 
Q 525 175 525 675 
L 525 3650 
Q 525 4225 500 4850 
L 2450 4850 
z
M 4250 4825 
Q 4600 4100 5187 3637 
Q 5775 3175 6200 3025 
Q 5950 2775 5800 2500 
Q 4975 3075 4600 3512 
Q 4225 3950 4025 4400 
Q 3850 4025 3512 3487 
Q 3175 2950 2625 2350 
Q 2425 2575 2175 2700 
Q 2700 3075 3150 3787 
Q 3600 4500 3850 5275 
Q 4050 5150 4375 5075 
Q 4275 4900 4250 4825 
z
M 3750 2700 
Q 3650 2325 3575 1512 
Q 3500 700 3250 225 
Q 3000 -250 2650 -575 
Q 2425 -400 2175 -300 
Q 2550 -25 2762 337 
Q 2975 700 3087 1200 
Q 3200 1700 3200 2800 
Q 3350 2725 3750 2700 
z
M 5025 2775 
Q 4975 2425 4975 2025 
L 4975 350 
Q 4975 100 5000 -525 
L 4475 -525 
Q 4500 150 4500 375 
L 4500 2025 
Q 4500 2375 4475 2775 
L 5025 2775 
z
" transform="scale(0.015625)"/>
      <path id="SimHei-68af" d="M 4225 4225 
Q 4500 4800 4600 5225 
Q 4900 5100 5175 5025 
Q 5025 4900 4887 4687 
Q 4750 4475 4625 4225 
L 5675 4225 
Q 5650 3850 5650 3475 
Q 5650 3100 5675 2750 
L 4300 2750 
L 4300 2025 
L 5850 2025 
Q 5825 1725 5825 1350 
L 5825 675 
Q 5825 350 5625 225 
Q 5425 100 4950 25 
Q 4925 275 4700 525 
Q 5125 525 5262 575 
Q 5400 625 5400 875 
L 5400 1650 
L 4300 1650 
L 4300 450 
Q 4300 -50 4325 -525 
L 3850 -525 
Q 3875 -100 3875 425 
L 3875 1600 
Q 3575 950 3187 537 
Q 2800 125 2150 -325 
Q 2050 -75 1775 100 
Q 2375 375 2787 787 
Q 3200 1200 3450 1650 
L 2575 1650 
Q 2650 2375 2700 3125 
L 3875 3125 
L 3875 3850 
L 3325 3850 
Q 2975 3850 2575 3825 
L 2575 4250 
Q 3000 4225 3325 4225 
L 4225 4225 
z
M 1125 3725 
Q 1125 4700 1100 5075 
L 1625 5075 
Q 1550 4725 1550 3725 
Q 1975 3725 2250 3750 
L 2250 3325 
Q 1925 3350 1550 3350 
L 1550 2375 
Q 1750 2450 1950 2600 
Q 2225 2100 2425 1725 
Q 2200 1600 2000 1450 
Q 1875 1800 1550 2275 
L 1550 325 
Q 1550 -75 1575 -525 
L 1100 -525 
Q 1125 -100 1125 325 
L 1125 2275 
Q 925 1675 525 975 
Q 400 1225 200 1400 
Q 425 1675 700 2275 
Q 975 2875 1050 3350 
Q 675 3350 350 3325 
L 350 3750 
Q 725 3725 1125 3725 
z
M 5200 3125 
L 5200 3850 
L 4300 3850 
L 4300 3125 
L 5200 3125 
z
M 3875 2025 
L 3875 2750 
L 3100 2750 
L 3050 2025 
L 3875 2025 
z
M 3375 5225 
Q 3575 4900 3750 4550 
Q 3550 4475 3350 4325 
Q 3200 4700 2975 5025 
Q 3175 5100 3375 5225 
z
" transform="scale(0.015625)"/>
     </defs>
     <use xlink:href="#SimHei-9636"/>
     <use xlink:href="#SimHei-68af" x="100"/>
     <use xlink:href="#SimHei-56fe" x="200"/>
    </g>
   </g>
  </g>
  <g id="axes_5">
   <g id="patch_30">
    <path d="M 550.927059 628.6248 
L 866.032941 628.6248 
L 866.032941 381.4128 
L 550.927059 381.4128 
z
" style="fill: #ffffff"/>
   </g>
   <g id="PolyCollection_1">
    <path d="M 550.927059 591.275628 
L 550.927059 529.476997 
L 571.934118 516.550346 
L 592.941176 519.437733 
L 613.948235 506.527835 
L 634.955294 500.691211 
L 655.962353 493.291599 
L 676.969412 483.60004 
L 697.976471 472.898328 
L 718.983529 463.866745 
L 739.990588 453.431577 
L 760.997647 447.03943 
L 782.004706 434.688745 
L 803.011765 433.876559 
L 824.018824 415.227527 
L 845.025882 420.131541 
L 866.032941 401.955074 
L 866.032941 529.413871 
L 866.032941 529.413871 
L 845.025882 538.520968 
L 824.018824 530.59274 
L 803.011765 545.656893 
L 782.004706 551.797674 
L 760.997647 555.207303 
L 739.990588 546.819156 
L 718.983529 551.22083 
L 697.976471 558.184996 
L 676.969412 568.159461 
L 655.962353 562.161932 
L 634.955294 568.870396 
L 613.948235 582.301883 
L 592.941176 587.313817 
L 571.934118 584.970923 
L 550.927059 591.275628 
z
" clip-path="url(#p779007b9ef)" style="fill: #1f77b4; fill-opacity: 0.5"/>
   </g>
   <g id="matplotlib.axis_9">
    <g id="xtick_29">
     <g id="line2d_60">
      <g>
       <use xlink:href="#mba874ccbbf" x="590.315294" y="628.6248" style="stroke: #000000; stroke-width: 0.8"/>
      </g>
     </g>
     <g id="text_60">
      <!-- 1 -->
      <g transform="translate(587.815294 642.4998)scale(0.1 -0.1)">
       <use xlink:href="#SimHei-31"/>
      </g>
     </g>
    </g>
    <g id="xtick_30">
     <g id="line2d_61">
      <g>
       <use xlink:href="#mba874ccbbf" x="629.703529" y="628.6248" style="stroke: #000000; stroke-width: 0.8"/>
      </g>
     </g>
     <g id="text_61">
      <!-- 2 -->
      <g transform="translate(627.203529 642.4998)scale(0.1 -0.1)">
       <use xlink:href="#SimHei-32"/>
      </g>
     </g>
    </g>
    <g id="xtick_31">
     <g id="line2d_62">
      <g>
       <use xlink:href="#mba874ccbbf" x="669.091765" y="628.6248" style="stroke: #000000; stroke-width: 0.8"/>
      </g>
     </g>
     <g id="text_62">
      <!-- 3 -->
      <g transform="translate(666.591765 642.4998)scale(0.1 -0.1)">
       <use xlink:href="#SimHei-33"/>
      </g>
     </g>
    </g>
    <g id="xtick_32">
     <g id="line2d_63">
      <g>
       <use xlink:href="#mba874ccbbf" x="708.48" y="628.6248" style="stroke: #000000; stroke-width: 0.8"/>
      </g>
     </g>
     <g id="text_63">
      <!-- 4 -->
      <g transform="translate(705.98 642.4998)scale(0.1 -0.1)">
       <use xlink:href="#SimHei-34"/>
      </g>
     </g>
    </g>
    <g id="xtick_33">
     <g id="line2d_64">
      <g>
       <use xlink:href="#mba874ccbbf" x="747.868235" y="628.6248" style="stroke: #000000; stroke-width: 0.8"/>
      </g>
     </g>
     <g id="text_64">
      <!-- 5 -->
      <g transform="translate(745.368235 642.4998)scale(0.1 -0.1)">
       <use xlink:href="#SimHei-35"/>
      </g>
     </g>
    </g>
    <g id="xtick_34">
     <g id="line2d_65">
      <g>
       <use xlink:href="#mba874ccbbf" x="787.256471" y="628.6248" style="stroke: #000000; stroke-width: 0.8"/>
      </g>
     </g>
     <g id="text_65">
      <!-- 6 -->
      <g transform="translate(784.756471 642.4998)scale(0.1 -0.1)">
       <use xlink:href="#SimHei-36"/>
      </g>
     </g>
    </g>
    <g id="xtick_35">
     <g id="line2d_66">
      <g>
       <use xlink:href="#mba874ccbbf" x="826.644706" y="628.6248" style="stroke: #000000; stroke-width: 0.8"/>
      </g>
     </g>
     <g id="text_66">
      <!-- 7 -->
      <g transform="translate(824.144706 642.4998)scale(0.1 -0.1)">
       <use xlink:href="#SimHei-37"/>
      </g>
     </g>
    </g>
   </g>
   <g id="matplotlib.axis_10">
    <g id="ytick_29">
     <g id="line2d_67">
      <g>
       <use xlink:href="#m288656f110" x="550.927059" y="597.7233" style="stroke: #000000; stroke-width: 0.8"/>
      </g>
     </g>
     <g id="text_67">
      <!-- 1 -->
      <g transform="translate(538.927059 601.1608)scale(0.1 -0.1)">
       <use xlink:href="#SimHei-31"/>
      </g>
     </g>
    </g>
    <g id="ytick_30">
     <g id="line2d_68">
      <g>
       <use xlink:href="#m288656f110" x="550.927059" y="566.8218" style="stroke: #000000; stroke-width: 0.8"/>
      </g>
     </g>
     <g id="text_68">
      <!-- 2 -->
      <g transform="translate(538.927059 570.2593)scale(0.1 -0.1)">
       <use xlink:href="#SimHei-32"/>
      </g>
     </g>
    </g>
    <g id="ytick_31">
     <g id="line2d_69">
      <g>
       <use xlink:href="#m288656f110" x="550.927059" y="535.9203" style="stroke: #000000; stroke-width: 0.8"/>
      </g>
     </g>
     <g id="text_69">
      <!-- 3 -->
      <g transform="translate(538.927059 539.3578)scale(0.1 -0.1)">
       <use xlink:href="#SimHei-33"/>
      </g>
     </g>
    </g>
    <g id="ytick_32">
     <g id="line2d_70">
      <g>
       <use xlink:href="#m288656f110" x="550.927059" y="505.0188" style="stroke: #000000; stroke-width: 0.8"/>
      </g>
     </g>
     <g id="text_70">
      <!-- 4 -->
      <g transform="translate(538.927059 508.4563)scale(0.1 -0.1)">
       <use xlink:href="#SimHei-34"/>
      </g>
     </g>
    </g>
    <g id="ytick_33">
     <g id="line2d_71">
      <g>
       <use xlink:href="#m288656f110" x="550.927059" y="474.1173" style="stroke: #000000; stroke-width: 0.8"/>
      </g>
     </g>
     <g id="text_71">
      <!-- 5 -->
      <g transform="translate(538.927059 477.5548)scale(0.1 -0.1)">
       <use xlink:href="#SimHei-35"/>
      </g>
     </g>
    </g>
    <g id="ytick_34">
     <g id="line2d_72">
      <g>
       <use xlink:href="#m288656f110" x="550.927059" y="443.2158" style="stroke: #000000; stroke-width: 0.8"/>
      </g>
     </g>
     <g id="text_72">
      <!-- 6 -->
      <g transform="translate(538.927059 446.6533)scale(0.1 -0.1)">
       <use xlink:href="#SimHei-36"/>
      </g>
     </g>
    </g>
    <g id="ytick_35">
     <g id="line2d_73">
      <g>
       <use xlink:href="#m288656f110" x="550.927059" y="412.3143" style="stroke: #000000; stroke-width: 0.8"/>
      </g>
     </g>
     <g id="text_73">
      <!-- 7 -->
      <g transform="translate(538.927059 415.7518)scale(0.1 -0.1)">
       <use xlink:href="#SimHei-37"/>
      </g>
     </g>
    </g>
   </g>
   <g id="line2d_74">
    <path d="M 550.927059 560.376313 
L 571.934118 550.760635 
L 592.941176 553.375775 
L 613.948235 544.414859 
L 634.955294 534.780804 
L 655.962353 527.726766 
L 676.969412 525.879751 
L 697.976471 515.541662 
L 718.983529 507.543788 
L 739.990588 500.125367 
L 760.997647 501.123367 
L 782.004706 493.24321 
L 803.011765 489.766726 
L 824.018824 472.910133 
L 845.025882 479.326254 
L 866.032941 465.684473 
" clip-path="url(#p779007b9ef)" style="fill: none; stroke: #1f77b4; stroke-width: 2; stroke-linecap: square"/>
   </g>
   <g id="patch_31">
    <path d="M 550.927059 628.6248 
L 550.927059 381.4128 
" style="fill: none; stroke: #000000; stroke-width: 0.8; stroke-linejoin: miter; stroke-linecap: square"/>
   </g>
   <g id="patch_32">
    <path d="M 866.032941 628.6248 
L 866.032941 381.4128 
" style="fill: none; stroke: #000000; stroke-width: 0.8; stroke-linejoin: miter; stroke-linecap: square"/>
   </g>
   <g id="patch_33">
    <path d="M 550.927059 628.6248 
L 866.032941 628.6248 
" style="fill: none; stroke: #000000; stroke-width: 0.8; stroke-linejoin: miter; stroke-linecap: square"/>
   </g>
   <g id="patch_34">
    <path d="M 550.927059 381.4128 
L 866.032941 381.4128 
" style="fill: none; stroke: #000000; stroke-width: 0.8; stroke-linejoin: miter; stroke-linecap: square"/>
   </g>
   <g id="text_74">
    <!-- 填充图 -->
    <g transform="translate(690.48 375.4128)scale(0.12 -0.12)">
     <defs>
      <path id="SimHei-586b" d="M 3750 4675 
Q 3775 4925 3775 5225 
L 4300 5175 
Q 4250 4950 4200 4675 
L 4850 4675 
Q 5400 4675 5850 4700 
L 5850 4275 
Q 5400 4300 4850 4300 
L 4150 4300 
L 4100 3875 
L 5425 3875 
Q 5400 3525 5400 3100 
L 5400 1150 
Q 5750 1150 6050 1175 
L 6050 750 
Q 5675 775 5225 775 
L 2925 775 
Q 2525 775 2225 750 
L 2225 1175 
Q 2525 1150 2725 1150 
L 2725 3075 
Q 2725 3525 2700 3875 
L 3650 3875 
L 3700 4300 
L 3200 4300 
Q 2650 4300 2275 4275 
L 2275 4700 
Q 2650 4675 3200 4675 
L 3750 4675 
z
M 2125 975 
Q 1900 900 1375 687 
Q 850 475 525 300 
Q 450 575 250 775 
Q 450 800 1075 1025 
L 1075 3100 
Q 650 3100 375 3075 
L 375 3500 
Q 650 3475 1075 3475 
Q 1075 4625 1050 4975 
L 1550 4975 
Q 1525 4600 1525 3475 
Q 1975 3475 2200 3500 
L 2200 3075 
Q 1975 3100 1525 3100 
L 1525 1175 
Q 1800 1275 2150 1425 
L 2125 975 
z
M 3575 325 
Q 3300 125 2912 -150 
Q 2525 -425 2200 -625 
Q 2100 -450 1850 -250 
Q 2200 -100 2525 125 
Q 2850 350 3150 675 
Q 3400 425 3575 325 
z
M 4925 675 
Q 5350 325 6025 -225 
Q 5775 -425 5650 -600 
Q 5275 -175 4600 325 
Q 4800 500 4925 675 
z
M 4950 1150 
L 4950 1500 
L 3175 1500 
L 3175 1150 
L 4950 1150 
z
M 4950 1850 
L 4950 2175 
L 3175 2175 
L 3175 1850 
L 4950 1850 
z
M 4950 2525 
L 4950 2850 
L 3175 2850 
L 3175 2525 
L 4950 2525 
z
M 4950 3200 
L 4950 3525 
L 3175 3525 
L 3175 3200 
L 4950 3200 
z
" transform="scale(0.015625)"/>
      <path id="SimHei-5145" d="M 3325 5175 
Q 3425 4825 3600 4300 
L 4900 4300 
Q 5425 4300 5775 4325 
L 5775 3825 
Q 5525 3850 4925 3850 
L 2675 3850 
Q 2850 3700 3100 3550 
Q 2775 3400 1875 2675 
L 4475 2750 
Q 4275 2975 3900 3275 
Q 4150 3450 4275 3600 
Q 5250 2775 5625 2350 
Q 5400 2200 5200 1975 
Q 5000 2225 4800 2425 
Q 4475 2400 4100 2375 
L 4100 325 
Q 4100 0 4425 0 
L 5125 0 
Q 5325 0 5375 175 
Q 5425 350 5475 800 
Q 5850 625 6075 600 
Q 5875 -250 5700 -350 
Q 5525 -450 5275 -450 
L 4225 -450 
Q 3650 -450 3650 75 
L 3650 2325 
L 2650 2250 
Q 2675 -75 800 -650 
Q 650 -375 400 -225 
Q 2225 275 2175 2200 
Q 1550 2150 1175 2050 
Q 1100 2450 1025 2725 
Q 1575 2875 1900 3200 
Q 2225 3525 2475 3850 
L 1450 3850 
Q 1025 3850 575 3825 
L 575 4325 
Q 1025 4300 1450 4300 
L 3000 4300 
Q 2875 4725 2750 5025 
Q 3075 5100 3325 5175 
z
" transform="scale(0.015625)"/>
     </defs>
     <use xlink:href="#SimHei-586b"/>
     <use xlink:href="#SimHei-5145" x="100"/>
     <use xlink:href="#SimHei-56fe" x="200"/>
    </g>
   </g>
  </g>
  <g id="axes_6">
   <g id="patch_35">
    <path d="M 963.001059 628.6248 
L 1210.213059 628.6248 
L 1210.213059 381.4128 
L 963.001059 381.4128 
z
" style="fill: #ffffff"/>
   </g>
   <g id="patch_36">
    <path d="M 1179.311559 505.0188 
C 1179.311559 495.29089 1177.780367 485.623326 1174.774278 476.371534 
C 1171.768188 467.119741 1167.324497 458.398506 1161.606574 450.528461 
L 1086.607059 505.0188 
L 1179.311559 505.0188 
z
" style="fill: #d0e1f2; stroke: #ffffff; stroke-linejoin: miter"/>
   </g>
   <g id="patch_37">
    <path d="M 1161.606574 450.528461 
C 1150.101132 434.69258 1133.870519 422.900349 1115.254323 416.851581 
C 1096.638127 410.802812 1076.575986 410.802813 1057.95979 416.851582 
L 1086.607059 505.0188 
L 1161.606574 450.528461 
z
" style="fill: #a1cbe2; stroke: #ffffff; stroke-linejoin: miter"/>
   </g>
   <g id="patch_38">
    <path d="M 1057.95979 416.851582 
C 1044.046764 421.372199 1031.399355 429.122541 1021.055075 439.466822 
C 1010.710795 449.811104 1002.960454 462.458513 998.439838 476.37154 
C 993.919223 490.284567 992.755422 505.072072 995.043906 519.520987 
C 997.332391 533.969901 1003.008824 547.674019 1011.607548 559.509146 
L 1086.607059 505.0188 
L 1057.95979 416.851582 
z
" style="fill: #60a7d2; stroke: #ffffff; stroke-linejoin: miter"/>
   </g>
   <g id="patch_39">
    <path d="M 1011.607548 559.509146 
C 1023.112992 575.345026 1039.343606 587.137255 1057.959803 593.186022 
C 1076.575999 599.234789 1096.638141 599.234786 1115.254336 593.186015 
C 1133.87053 587.137244 1150.101142 575.345011 1161.606582 559.509128 
C 1173.112021 543.673245 1179.311562 524.593013 1179.311559 505.018787 
L 1086.607059 505.0188 
L 1011.607548 559.509146 
z
" style="fill: #2e7ebc; stroke: #ffffff; stroke-linejoin: miter"/>
   </g>
   <g id="matplotlib.axis_11">
    <g id="xtick_36">
     <g id="line2d_75">
      <g>
       <use xlink:href="#mba874ccbbf" x="993.902559" y="628.6248" style="stroke: #000000; stroke-width: 0.8"/>
      </g>
     </g>
     <g id="text_75">
      <!-- 1 -->
      <g transform="translate(991.402559 642.4998)scale(0.1 -0.1)">
       <use xlink:href="#SimHei-31"/>
      </g>
     </g>
    </g>
    <g id="xtick_37">
     <g id="line2d_76">
      <g>
       <use xlink:href="#mba874ccbbf" x="1024.804059" y="628.6248" style="stroke: #000000; stroke-width: 0.8"/>
      </g>
     </g>
     <g id="text_76">
      <!-- 2 -->
      <g transform="translate(1022.304059 642.4998)scale(0.1 -0.1)">
       <use xlink:href="#SimHei-32"/>
      </g>
     </g>
    </g>
    <g id="xtick_38">
     <g id="line2d_77">
      <g>
       <use xlink:href="#mba874ccbbf" x="1055.705559" y="628.6248" style="stroke: #000000; stroke-width: 0.8"/>
      </g>
     </g>
     <g id="text_77">
      <!-- 3 -->
      <g transform="translate(1053.205559 642.4998)scale(0.1 -0.1)">
       <use xlink:href="#SimHei-33"/>
      </g>
     </g>
    </g>
    <g id="xtick_39">
     <g id="line2d_78">
      <g>
       <use xlink:href="#mba874ccbbf" x="1086.607059" y="628.6248" style="stroke: #000000; stroke-width: 0.8"/>
      </g>
     </g>
     <g id="text_78">
      <!-- 4 -->
      <g transform="translate(1084.107059 642.4998)scale(0.1 -0.1)">
       <use xlink:href="#SimHei-34"/>
      </g>
     </g>
    </g>
    <g id="xtick_40">
     <g id="line2d_79">
      <g>
       <use xlink:href="#mba874ccbbf" x="1117.508559" y="628.6248" style="stroke: #000000; stroke-width: 0.8"/>
      </g>
     </g>
     <g id="text_79">
      <!-- 5 -->
      <g transform="translate(1115.008559 642.4998)scale(0.1 -0.1)">
       <use xlink:href="#SimHei-35"/>
      </g>
     </g>
    </g>
    <g id="xtick_41">
     <g id="line2d_80">
      <g>
       <use xlink:href="#mba874ccbbf" x="1148.410059" y="628.6248" style="stroke: #000000; stroke-width: 0.8"/>
      </g>
     </g>
     <g id="text_80">
      <!-- 6 -->
      <g transform="translate(1145.910059 642.4998)scale(0.1 -0.1)">
       <use xlink:href="#SimHei-36"/>
      </g>
     </g>
    </g>
    <g id="xtick_42">
     <g id="line2d_81">
      <g>
       <use xlink:href="#mba874ccbbf" x="1179.311559" y="628.6248" style="stroke: #000000; stroke-width: 0.8"/>
      </g>
     </g>
     <g id="text_81">
      <!-- 7 -->
      <g transform="translate(1176.811559 642.4998)scale(0.1 -0.1)">
       <use xlink:href="#SimHei-37"/>
      </g>
     </g>
    </g>
   </g>
   <g id="matplotlib.axis_12">
    <g id="ytick_36">
     <g id="line2d_82">
      <g>
       <use xlink:href="#m288656f110" x="963.001059" y="597.7233" style="stroke: #000000; stroke-width: 0.8"/>
      </g>
     </g>
     <g id="text_82">
      <!-- 1 -->
      <g transform="translate(951.001059 601.1608)scale(0.1 -0.1)">
       <use xlink:href="#SimHei-31"/>
      </g>
     </g>
    </g>
    <g id="ytick_37">
     <g id="line2d_83">
      <g>
       <use xlink:href="#m288656f110" x="963.001059" y="566.8218" style="stroke: #000000; stroke-width: 0.8"/>
      </g>
     </g>
     <g id="text_83">
      <!-- 2 -->
      <g transform="translate(951.001059 570.2593)scale(0.1 -0.1)">
       <use xlink:href="#SimHei-32"/>
      </g>
     </g>
    </g>
    <g id="ytick_38">
     <g id="line2d_84">
      <g>
       <use xlink:href="#m288656f110" x="963.001059" y="535.9203" style="stroke: #000000; stroke-width: 0.8"/>
      </g>
     </g>
     <g id="text_84">
      <!-- 3 -->
      <g transform="translate(951.001059 539.3578)scale(0.1 -0.1)">
       <use xlink:href="#SimHei-33"/>
      </g>
     </g>
    </g>
    <g id="ytick_39">
     <g id="line2d_85">
      <g>
       <use xlink:href="#m288656f110" x="963.001059" y="505.0188" style="stroke: #000000; stroke-width: 0.8"/>
      </g>
     </g>
     <g id="text_85">
      <!-- 4 -->
      <g transform="translate(951.001059 508.4563)scale(0.1 -0.1)">
       <use xlink:href="#SimHei-34"/>
      </g>
     </g>
    </g>
    <g id="ytick_40">
     <g id="line2d_86">
      <g>
       <use xlink:href="#m288656f110" x="963.001059" y="474.1173" style="stroke: #000000; stroke-width: 0.8"/>
      </g>
     </g>
     <g id="text_86">
      <!-- 5 -->
      <g transform="translate(951.001059 477.5548)scale(0.1 -0.1)">
       <use xlink:href="#SimHei-35"/>
      </g>
     </g>
    </g>
    <g id="ytick_41">
     <g id="line2d_87">
      <g>
       <use xlink:href="#m288656f110" x="963.001059" y="443.2158" style="stroke: #000000; stroke-width: 0.8"/>
      </g>
     </g>
     <g id="text_87">
      <!-- 6 -->
      <g transform="translate(951.001059 446.6533)scale(0.1 -0.1)">
       <use xlink:href="#SimHei-36"/>
      </g>
     </g>
    </g>
    <g id="ytick_42">
     <g id="line2d_88">
      <g>
       <use xlink:href="#m288656f110" x="963.001059" y="412.3143" style="stroke: #000000; stroke-width: 0.8"/>
      </g>
     </g>
     <g id="text_88">
      <!-- 7 -->
      <g transform="translate(951.001059 415.7518)scale(0.1 -0.1)">
       <use xlink:href="#SimHei-37"/>
      </g>
     </g>
    </g>
   </g>
   <g id="patch_40">
    <path d="M 963.001059 628.6248 
L 963.001059 381.4128 
" style="fill: none; stroke: #000000; stroke-width: 0.8; stroke-linejoin: miter; stroke-linecap: square"/>
   </g>
   <g id="patch_41">
    <path d="M 1210.213059 628.6248 
L 1210.213059 381.4128 
" style="fill: none; stroke: #000000; stroke-width: 0.8; stroke-linejoin: miter; stroke-linecap: square"/>
   </g>
   <g id="patch_42">
    <path d="M 963.001059 628.6248 
L 1210.213059 628.6248 
" style="fill: none; stroke: #000000; stroke-width: 0.8; stroke-linejoin: miter; stroke-linecap: square"/>
   </g>
   <g id="patch_43">
    <path d="M 963.001059 381.4128 
L 1210.213059 381.4128 
" style="fill: none; stroke: #000000; stroke-width: 0.8; stroke-linejoin: miter; stroke-linecap: square"/>
   </g>
   <g id="text_89">
    <!-- 扇形图 -->
    <g transform="translate(1068.607059 375.4128)scale(0.12 -0.12)">
     <defs>
      <path id="SimHei-6247" d="M 3525 5250 
Q 3725 4800 3800 4575 
L 5775 4575 
Q 5750 4225 5750 3850 
Q 5750 3475 5775 3150 
L 1450 3150 
Q 1425 1875 1350 1425 
Q 1275 975 1162 475 
Q 1050 -25 800 -625 
Q 550 -450 225 -350 
Q 450 50 587 487 
Q 725 925 825 1400 
Q 925 1875 950 2750 
Q 975 3625 950 4575 
L 3225 4575 
L 2975 5075 
Q 3250 5150 3525 5250 
z
M 5900 2700 
Q 5875 2250 5875 1900 
L 5875 25 
Q 5875 -350 5612 -450 
Q 5350 -550 4875 -625 
Q 4875 -375 4700 -75 
Q 5175 -100 5262 -75 
Q 5350 -50 5350 175 
L 5350 950 
Q 4600 425 4175 75 
Q 4050 350 3750 550 
Q 4225 625 5350 1475 
L 5350 2325 
L 4650 2325 
Q 4375 2325 3975 2300 
L 3975 2725 
Q 4350 2700 4650 2700 
L 5900 2700 
z
M 3625 2700 
Q 3600 2275 3600 1925 
L 3600 -100 
Q 3550 -425 3337 -500 
Q 3125 -575 2575 -650 
Q 2550 -425 2350 -125 
Q 2925 -175 3012 -100 
Q 3100 -25 3125 150 
L 3125 825 
Q 2275 350 1775 -25 
Q 1600 250 1400 475 
Q 1825 550 3125 1325 
L 3125 2325 
L 2550 2325 
Q 2200 2325 1825 2300 
L 1825 2725 
Q 2175 2700 2550 2700 
L 3625 2700 
z
M 5250 3550 
L 5250 4175 
L 1450 4175 
L 1450 3550 
L 5250 3550 
z
M 2200 2025 
Q 2525 1675 2675 1500 
Q 2450 1350 2250 1175 
Q 2150 1400 1825 1725 
Q 2025 1850 2200 2025 
z
M 4450 2050 
Q 4675 1700 4850 1500 
Q 4650 1375 4475 1200 
Q 4350 1500 4050 1775 
Q 4300 1900 4450 2050 
z
" transform="scale(0.015625)"/>
     </defs>
     <use xlink:href="#SimHei-6247"/>
     <use xlink:href="#SimHei-5f62" x="100"/>
     <use xlink:href="#SimHei-56fe" x="200"/>
    </g>
   </g>
  </g>
 </g>
 <defs>
  <clipPath id="pa2c8199313">
   <rect x="172.8" y="84.7584" width="315.105882" height="247.212"/>
  </clipPath>
  <clipPath id="pf90740da62">
   <rect x="550.927059" y="84.7584" width="315.105882" height="247.212"/>
  </clipPath>
  <clipPath id="p539870b5eb">
   <rect x="929.054118" y="84.7584" width="315.105882" height="247.212"/>
  </clipPath>
  <clipPath id="pe63c2d4d08">
   <rect x="172.8" y="381.4128" width="315.105882" height="247.212"/>
  </clipPath>
  <clipPath id="p779007b9ef">
   <rect x="550.927059" y="381.4128" width="315.105882" height="247.212"/>
  </clipPath>
 </defs>
</svg>
