<?xml version="1.0" encoding="utf-8" standalone="no"?>
<!DOCTYPE svg PUBLIC "-//W3C//DTD SVG 1.1//EN"
  "http://www.w3.org/Graphics/SVG/1.1/DTD/svg11.dtd">
<svg xmlns:xlink="http://www.w3.org/1999/xlink" width="1382.4pt" height="707.76pt" viewBox="0 0 1382.4 707.76" xmlns="http://www.w3.org/2000/svg" version="1.1">
 <metadata>
  <rdf:RDF xmlns:dc="http://purl.org/dc/elements/1.1/" xmlns:cc="http://creativecommons.org/ns#" xmlns:rdf="http://www.w3.org/1999/02/22-rdf-syntax-ns#">
   <cc:Work>
    <dc:type rdf:resource="http://purl.org/dc/dcmitype/StillImage"/>
    <dc:date>2022-09-11T21:46:39.822455</dc:date>
    <dc:format>image/svg+xml</dc:format>
    <dc:creator>
     <cc:Agent>
      <dc:title>Matplotlib v3.5.1, https://matplotlib.org/</dc:title>
     </cc:Agent>
    </dc:creator>
   </cc:Work>
  </rdf:RDF>
 </metadata>
 <defs>
  <style type="text/css">*{stroke-linejoin: round; stroke-linecap: butt}</style>
 </defs>
 <g id="figure_1">
  <g id="patch_1">
   <path d="M 0 707.76 
L 1382.4 707.76 
L 1382.4 0 
L 0 0 
z
" style="fill: #ffffff"/>
  </g>
  <g id="axes_1">
   <g id="patch_2">
    <path d="M 172.8 629.9064 
L 1244.16 629.9064 
L 1244.16 84.9312 
L 172.8 84.9312 
z
" style="fill: #ffffff"/>
   </g>
   <g id="matplotlib.axis_1">
    <g id="xtick_1">
     <g id="line2d_1">
      <defs>
       <path id="m3ae38fff99" d="M 0 0 
L 0 3.5 
" style="stroke: #000000; stroke-width: 0.8"/>
      </defs>
      <g>
       <use xlink:href="#m3ae38fff99" x="172.8" y="357.4188" style="stroke: #000000; stroke-width: 0.8"/>
      </g>
     </g>
     <g id="text_1">
      <!-- 0 -->
      <g transform="translate(170.3 371.2938)scale(0.1 -0.1)">
       <defs>
        <path id="SimHei-30" d="M 225 2537 
Q 250 3200 412 3587 
Q 575 3975 875 4225 
Q 1175 4475 1612 4475 
Q 2050 4475 2375 4112 
Q 2700 3750 2800 3200 
Q 2900 2650 2862 1937 
Q 2825 1225 2612 775 
Q 2400 325 1975 150 
Q 1550 -25 1125 187 
Q 700 400 525 750 
Q 350 1100 275 1487 
Q 200 1875 225 2537 
z
M 750 2687 
Q 675 2000 800 1462 
Q 925 925 1212 700 
Q 1500 475 1800 612 
Q 2100 750 2237 1162 
Q 2375 1575 2375 2062 
Q 2375 2550 2337 2950 
Q 2300 3350 2112 3675 
Q 1925 4000 1612 4012 
Q 1300 4025 1062 3700 
Q 825 3375 750 2687 
z
" transform="scale(0.015625)"/>
       </defs>
       <use xlink:href="#SimHei-30"/>
      </g>
     </g>
    </g>
    <g id="xtick_2">
     <g id="line2d_2">
      <g>
       <use xlink:href="#m3ae38fff99" x="387.072" y="357.4188" style="stroke: #000000; stroke-width: 0.8"/>
      </g>
     </g>
     <g id="text_2">
      <!-- 1 -->
      <g transform="translate(384.572 371.2938)scale(0.1 -0.1)">
       <defs>
        <path id="SimHei-31" d="M 1400 3600 
Q 1075 3275 575 2975 
L 575 3450 
Q 1200 3875 1600 4450 
L 1900 4450 
L 1900 150 
L 1400 150 
L 1400 3600 
z
" transform="scale(0.015625)"/>
       </defs>
       <use xlink:href="#SimHei-31"/>
      </g>
     </g>
    </g>
    <g id="xtick_3">
     <g id="line2d_3">
      <g>
       <use xlink:href="#m3ae38fff99" x="601.344" y="357.4188" style="stroke: #000000; stroke-width: 0.8"/>
      </g>
     </g>
     <g id="text_3">
      <!-- 2 -->
      <g transform="translate(598.844 371.2938)scale(0.1 -0.1)">
       <defs>
        <path id="SimHei-32" d="M 300 250 
Q 325 625 650 925 
Q 975 1225 1475 1862 
Q 1975 2500 2125 2850 
Q 2275 3200 2237 3450 
Q 2200 3700 2000 3862 
Q 1800 4025 1537 4000 
Q 1275 3975 1037 3800 
Q 800 3625 675 3275 
L 200 3350 
Q 400 3925 712 4187 
Q 1025 4450 1450 4475 
Q 1700 4500 1900 4462 
Q 2100 4425 2312 4287 
Q 2525 4150 2662 3875 
Q 2800 3600 2762 3212 
Q 2725 2825 2375 2287 
Q 2025 1750 1025 600 
L 2825 600 
L 2825 150 
L 300 150 
L 300 250 
z
" transform="scale(0.015625)"/>
       </defs>
       <use xlink:href="#SimHei-32"/>
      </g>
     </g>
    </g>
    <g id="xtick_4">
     <g id="line2d_4">
      <g>
       <use xlink:href="#m3ae38fff99" x="815.616" y="357.4188" style="stroke: #000000; stroke-width: 0.8"/>
      </g>
     </g>
     <g id="text_4">
      <!-- 3 -->
      <g transform="translate(813.116 371.2938)scale(0.1 -0.1)">
       <defs>
        <path id="SimHei-33" d="M 250 1225 
L 700 1300 
Q 800 975 1025 762 
Q 1250 550 1587 562 
Q 1925 575 2125 837 
Q 2325 1100 2300 1437 
Q 2275 1775 2037 1962 
Q 1800 2150 1275 2225 
L 1275 2550 
Q 1800 2600 2037 2825 
Q 2275 3050 2250 3412 
Q 2225 3775 1925 3937 
Q 1625 4100 1287 3975 
Q 950 3850 750 3275 
L 300 3350 
Q 450 3800 712 4100 
Q 975 4400 1425 4450 
Q 1875 4500 2212 4337 
Q 2550 4175 2687 3837 
Q 2825 3500 2725 3100 
Q 2625 2700 2150 2400 
Q 2500 2250 2687 1950 
Q 2875 1650 2812 1162 
Q 2750 675 2375 375 
Q 2000 75 1525 87 
Q 1050 100 700 387 
Q 350 675 250 1225 
z
" transform="scale(0.015625)"/>
       </defs>
       <use xlink:href="#SimHei-33"/>
      </g>
     </g>
    </g>
    <g id="xtick_5">
     <g id="line2d_5">
      <g>
       <use xlink:href="#m3ae38fff99" x="1029.888" y="357.4188" style="stroke: #000000; stroke-width: 0.8"/>
      </g>
     </g>
     <g id="text_5">
      <!-- 4 -->
      <g transform="translate(1027.388 371.2938)scale(0.1 -0.1)">
       <defs>
        <path id="SimHei-34" d="M 2000 1100 
L 75 1100 
L 75 1525 
L 2100 4450 
L 2475 4450 
L 2475 1525 
L 3075 1525 
L 3075 1100 
L 2475 1100 
L 2475 150 
L 2000 150 
L 2000 1100 
z
M 2000 1525 
L 2000 3500 
L 600 1525 
L 2000 1525 
z
" transform="scale(0.015625)"/>
       </defs>
       <use xlink:href="#SimHei-34"/>
      </g>
     </g>
    </g>
    <g id="xtick_6">
     <g id="line2d_6">
      <g>
       <use xlink:href="#m3ae38fff99" x="1244.16" y="357.4188" style="stroke: #000000; stroke-width: 0.8"/>
      </g>
     </g>
     <g id="text_6">
      <!-- 5 -->
      <g transform="translate(1241.66 371.2938)scale(0.1 -0.1)">
       <defs>
        <path id="SimHei-35" d="M 550 1325 
Q 725 650 1150 575 
Q 1575 500 1837 662 
Q 2100 825 2212 1087 
Q 2325 1350 2312 1675 
Q 2300 2000 2137 2225 
Q 1975 2450 1725 2525 
Q 1475 2600 1162 2525 
Q 850 2450 650 2175 
L 225 2225 
Q 275 2375 700 4375 
L 2675 4375 
L 2675 3925 
L 1075 3925 
Q 950 3250 825 2850 
Q 1200 3025 1525 3012 
Q 1850 3000 2150 2862 
Q 2450 2725 2587 2487 
Q 2725 2250 2787 2012 
Q 2850 1775 2837 1500 
Q 2825 1225 2725 937 
Q 2625 650 2425 462 
Q 2225 275 1937 162 
Q 1650 50 1275 75 
Q 900 100 562 350 
Q 225 600 100 1200 
L 550 1325 
z
" transform="scale(0.015625)"/>
       </defs>
       <use xlink:href="#SimHei-35"/>
      </g>
     </g>
    </g>
    <g id="text_7">
     <!-- x轴 -->
     <g transform="translate(700.98 384.434425)scale(0.1 -0.1)">
      <defs>
       <path id="SimHei-78" d="M 2875 125 
L 2275 125 
L 1550 1200 
L 825 125 
L 225 125 
L 1250 1550 
L 300 2925 
L 900 2925 
L 1550 1875 
L 2200 2925 
L 2800 2925 
L 1850 1550 
L 2875 125 
z
" transform="scale(0.015625)"/>
       <path id="SimHei-8f74" d="M 4200 3900 
Q 4200 4775 4175 5175 
L 4700 5175 
Q 4675 4800 4675 3900 
L 5950 3900 
Q 5925 3025 5925 1675 
Q 5925 325 5950 -525 
L 5450 -525 
L 5450 100 
L 3425 100 
L 3425 -575 
L 2950 -575 
Q 2975 325 2975 1675 
Q 2975 3025 2950 3900 
L 4200 3900 
z
M 2725 950 
Q 2250 900 2075 875 
Q 2075 200 2100 -600 
L 1575 -600 
Q 1600 200 1600 800 
Q 700 650 450 575 
Q 400 800 275 1075 
Q 700 1100 1600 1250 
L 1600 2075 
L 1100 2075 
Q 850 2075 525 2000 
L 300 2475 
Q 525 2600 700 3025 
Q 875 3450 1025 3925 
Q 700 3925 325 3900 
L 325 4350 
Q 700 4325 1125 4325 
Q 1300 4825 1375 5250 
Q 1625 5150 1925 5100 
Q 1825 4925 1600 4325 
Q 2175 4325 2750 4350 
L 2750 3900 
Q 2200 3925 1475 3925 
Q 1150 3000 925 2475 
L 1600 2475 
Q 1600 3050 1575 3400 
L 2100 3400 
Q 2075 3100 2075 2475 
Q 2425 2475 2625 2500 
L 2625 2050 
Q 2450 2075 2075 2075 
L 2075 1300 
L 2775 1400 
Q 2725 1175 2725 950 
z
M 4200 525 
L 4200 1850 
L 3425 1850 
L 3425 525 
L 4200 525 
z
M 5450 525 
L 5450 1850 
L 4675 1850 
L 4675 525 
L 5450 525 
z
M 4200 2250 
L 4200 3475 
L 3425 3475 
L 3425 2250 
L 4200 2250 
z
M 5450 2250 
L 5450 3475 
L 4675 3475 
L 4675 2250 
L 5450 2250 
z
" transform="scale(0.015625)"/>
      </defs>
      <use xlink:href="#SimHei-78"/>
      <use xlink:href="#SimHei-8f74" x="50"/>
     </g>
    </g>
   </g>
   <g id="matplotlib.axis_2">
    <g id="ytick_1">
     <g id="line2d_7">
      <defs>
       <path id="m900f7dd888" d="M 0 0 
L -3.5 0 
" style="stroke: #000000; stroke-width: 0.8"/>
      </defs>
      <g>
       <use xlink:href="#m900f7dd888" x="172.8" y="629.9064" style="stroke: #000000; stroke-width: 0.8"/>
      </g>
     </g>
     <g id="text_8">
      <!-- -2.0 -->
      <g transform="translate(145.8 633.3439)scale(0.1 -0.1)">
       <defs>
        <path id="SimHei-2d" d="M 2975 2125 
L 125 2125 
L 125 2525 
L 2975 2525 
L 2975 2125 
z
" transform="scale(0.015625)"/>
        <path id="SimHei-2e" d="M 1075 125 
L 500 125 
L 500 675 
L 1075 675 
L 1075 125 
z
" transform="scale(0.015625)"/>
       </defs>
       <use xlink:href="#SimHei-2d"/>
       <use xlink:href="#SimHei-32" x="50"/>
       <use xlink:href="#SimHei-2e" x="100"/>
       <use xlink:href="#SimHei-30" x="150"/>
      </g>
     </g>
    </g>
    <g id="ytick_2">
     <g id="line2d_8">
      <g>
       <use xlink:href="#m900f7dd888" x="172.8" y="561.7845" style="stroke: #000000; stroke-width: 0.8"/>
      </g>
     </g>
     <g id="text_9">
      <!-- -1.5 -->
      <g transform="translate(145.8 565.222)scale(0.1 -0.1)">
       <use xlink:href="#SimHei-2d"/>
       <use xlink:href="#SimHei-31" x="50"/>
       <use xlink:href="#SimHei-2e" x="100"/>
       <use xlink:href="#SimHei-35" x="150"/>
      </g>
     </g>
    </g>
    <g id="ytick_3">
     <g id="line2d_9">
      <g>
       <use xlink:href="#m900f7dd888" x="172.8" y="493.6626" style="stroke: #000000; stroke-width: 0.8"/>
      </g>
     </g>
     <g id="text_10">
      <!-- -1.0 -->
      <g transform="translate(145.8 497.1001)scale(0.1 -0.1)">
       <use xlink:href="#SimHei-2d"/>
       <use xlink:href="#SimHei-31" x="50"/>
       <use xlink:href="#SimHei-2e" x="100"/>
       <use xlink:href="#SimHei-30" x="150"/>
      </g>
     </g>
    </g>
    <g id="ytick_4">
     <g id="line2d_10">
      <g>
       <use xlink:href="#m900f7dd888" x="172.8" y="425.5407" style="stroke: #000000; stroke-width: 0.8"/>
      </g>
     </g>
     <g id="text_11">
      <!-- -0.5 -->
      <g transform="translate(145.8 428.9782)scale(0.1 -0.1)">
       <use xlink:href="#SimHei-2d"/>
       <use xlink:href="#SimHei-30" x="50"/>
       <use xlink:href="#SimHei-2e" x="100"/>
       <use xlink:href="#SimHei-35" x="150"/>
      </g>
     </g>
    </g>
    <g id="ytick_5">
     <g id="line2d_11">
      <g>
       <use xlink:href="#m900f7dd888" x="172.8" y="357.4188" style="stroke: #000000; stroke-width: 0.8"/>
      </g>
     </g>
     <g id="text_12">
      <!-- 0.0 -->
      <g transform="translate(150.8 360.8563)scale(0.1 -0.1)">
       <use xlink:href="#SimHei-30"/>
       <use xlink:href="#SimHei-2e" x="50"/>
       <use xlink:href="#SimHei-30" x="100"/>
      </g>
     </g>
    </g>
    <g id="ytick_6">
     <g id="line2d_12">
      <g>
       <use xlink:href="#m900f7dd888" x="172.8" y="289.2969" style="stroke: #000000; stroke-width: 0.8"/>
      </g>
     </g>
     <g id="text_13">
      <!-- 0.5 -->
      <g transform="translate(150.8 292.7344)scale(0.1 -0.1)">
       <use xlink:href="#SimHei-30"/>
       <use xlink:href="#SimHei-2e" x="50"/>
       <use xlink:href="#SimHei-35" x="100"/>
      </g>
     </g>
    </g>
    <g id="ytick_7">
     <g id="line2d_13">
      <g>
       <use xlink:href="#m900f7dd888" x="172.8" y="221.175" style="stroke: #000000; stroke-width: 0.8"/>
      </g>
     </g>
     <g id="text_14">
      <!-- 1.0 -->
      <g transform="translate(150.8 224.6125)scale(0.1 -0.1)">
       <use xlink:href="#SimHei-31"/>
       <use xlink:href="#SimHei-2e" x="50"/>
       <use xlink:href="#SimHei-30" x="100"/>
      </g>
     </g>
    </g>
    <g id="ytick_8">
     <g id="line2d_14">
      <g>
       <use xlink:href="#m900f7dd888" x="172.8" y="153.0531" style="stroke: #000000; stroke-width: 0.8"/>
      </g>
     </g>
     <g id="text_15">
      <!-- 1.5 -->
      <g transform="translate(150.8 156.4906)scale(0.1 -0.1)">
       <use xlink:href="#SimHei-31"/>
       <use xlink:href="#SimHei-2e" x="50"/>
       <use xlink:href="#SimHei-35" x="100"/>
      </g>
     </g>
    </g>
    <g id="ytick_9">
     <g id="line2d_15">
      <g>
       <use xlink:href="#m900f7dd888" x="172.8" y="84.9312" style="stroke: #000000; stroke-width: 0.8"/>
      </g>
     </g>
     <g id="text_16">
      <!-- 2.0 -->
      <g transform="translate(150.8 88.3687)scale(0.1 -0.1)">
       <use xlink:href="#SimHei-32"/>
       <use xlink:href="#SimHei-2e" x="50"/>
       <use xlink:href="#SimHei-30" x="100"/>
      </g>
     </g>
    </g>
    <g id="text_17">
     <!-- y轴 -->
     <g transform="translate(140.55 364.9188)rotate(-90)scale(0.1 -0.1)">
      <defs>
       <path id="SimHei-79" d="M 2900 2925 
L 1750 -100 
Q 1650 -450 1450 -625 
Q 1250 -800 950 -800 
Q 825 -800 712 -787 
Q 600 -775 500 -725 
L 500 -225 
Q 600 -275 700 -300 
Q 800 -325 875 -325 
Q 1075 -325 1150 -262 
Q 1225 -200 1300 25 
L 200 2925 
L 750 2925 
L 1550 725 
L 1575 725 
L 2350 2925 
L 2900 2925 
z
" transform="scale(0.015625)"/>
      </defs>
      <use xlink:href="#SimHei-79"/>
      <use xlink:href="#SimHei-8f74" x="50"/>
     </g>
    </g>
   </g>
   <g id="line2d_16">
    <path d="M 172.8 357.4188 
L 215.6544 330.351335 
L 258.5088 304.362965 
L 301.3632 280.489764 
L 344.2176 259.68348 
L 387.072 242.773595 
L 429.9264 230.434253 
L 472.7808 223.157384 
L 515.6352 221.233094 
L 558.4896 224.738098 
L 601.344 233.532663 
L 644.1984 247.266178 
L 687.0528 265.39113 
L 729.9072 287.184934 
L 772.7616 311.778741 
L 815.616 338.192074 
L 858.4704 365.371915 
L 901.3248 392.234691 
L 944.1792 417.709467 
L 987.0336 440.780644 
L 1029.888 460.528448 
L 1072.7424 476.165595 
L 1115.5968 487.068683 
L 1158.4512 492.803038 
L 1201.3056 493.140052 
" clip-path="url(#p51dd7766d0)" style="fill: none; stroke-dasharray: 5.55,2.4; stroke-dashoffset: 0; stroke: #ff0000; stroke-width: 1.5"/>
    <defs>
     <path id="mb599864622" d="M 0 3 
C 0.795609 3 1.55874 2.683901 2.12132 2.12132 
C 2.683901 1.55874 3 0.795609 3 0 
C 3 -0.795609 2.683901 -1.55874 2.12132 -2.12132 
C 1.55874 -2.683901 0.795609 -3 0 -3 
C -0.795609 -3 -1.55874 -2.683901 -2.12132 -2.12132 
C -2.683901 -1.55874 -3 -0.795609 -3 0 
C -3 0.795609 -2.683901 1.55874 -2.12132 2.12132 
C -1.55874 2.683901 -0.795609 3 0 3 
z
" style="stroke: #ff0000"/>
    </defs>
    <g clip-path="url(#p51dd7766d0)">
     <use xlink:href="#mb599864622" x="172.8" y="357.4188" style="fill: #ff0000; stroke: #ff0000"/>
     <use xlink:href="#mb599864622" x="215.6544" y="330.351335" style="fill: #ff0000; stroke: #ff0000"/>
     <use xlink:href="#mb599864622" x="258.5088" y="304.362965" style="fill: #ff0000; stroke: #ff0000"/>
     <use xlink:href="#mb599864622" x="301.3632" y="280.489764" style="fill: #ff0000; stroke: #ff0000"/>
     <use xlink:href="#mb599864622" x="344.2176" y="259.68348" style="fill: #ff0000; stroke: #ff0000"/>
     <use xlink:href="#mb599864622" x="387.072" y="242.773595" style="fill: #ff0000; stroke: #ff0000"/>
     <use xlink:href="#mb599864622" x="429.9264" y="230.434253" style="fill: #ff0000; stroke: #ff0000"/>
     <use xlink:href="#mb599864622" x="472.7808" y="223.157384" style="fill: #ff0000; stroke: #ff0000"/>
     <use xlink:href="#mb599864622" x="515.6352" y="221.233094" style="fill: #ff0000; stroke: #ff0000"/>
     <use xlink:href="#mb599864622" x="558.4896" y="224.738098" style="fill: #ff0000; stroke: #ff0000"/>
     <use xlink:href="#mb599864622" x="601.344" y="233.532663" style="fill: #ff0000; stroke: #ff0000"/>
     <use xlink:href="#mb599864622" x="644.1984" y="247.266178" style="fill: #ff0000; stroke: #ff0000"/>
     <use xlink:href="#mb599864622" x="687.0528" y="265.39113" style="fill: #ff0000; stroke: #ff0000"/>
     <use xlink:href="#mb599864622" x="729.9072" y="287.184934" style="fill: #ff0000; stroke: #ff0000"/>
     <use xlink:href="#mb599864622" x="772.7616" y="311.778741" style="fill: #ff0000; stroke: #ff0000"/>
     <use xlink:href="#mb599864622" x="815.616" y="338.192074" style="fill: #ff0000; stroke: #ff0000"/>
     <use xlink:href="#mb599864622" x="858.4704" y="365.371915" style="fill: #ff0000; stroke: #ff0000"/>
     <use xlink:href="#mb599864622" x="901.3248" y="392.234691" style="fill: #ff0000; stroke: #ff0000"/>
     <use xlink:href="#mb599864622" x="944.1792" y="417.709467" style="fill: #ff0000; stroke: #ff0000"/>
     <use xlink:href="#mb599864622" x="987.0336" y="440.780644" style="fill: #ff0000; stroke: #ff0000"/>
     <use xlink:href="#mb599864622" x="1029.888" y="460.528448" style="fill: #ff0000; stroke: #ff0000"/>
     <use xlink:href="#mb599864622" x="1072.7424" y="476.165595" style="fill: #ff0000; stroke: #ff0000"/>
     <use xlink:href="#mb599864622" x="1115.5968" y="487.068683" style="fill: #ff0000; stroke: #ff0000"/>
     <use xlink:href="#mb599864622" x="1158.4512" y="492.803038" style="fill: #ff0000; stroke: #ff0000"/>
     <use xlink:href="#mb599864622" x="1201.3056" y="493.140052" style="fill: #ff0000; stroke: #ff0000"/>
    </g>
   </g>
   <g id="line2d_17">
    <path d="M 172.8 357.4188 
L 215.6544 330.17004 
L 258.5088 302.92128 
L 301.3632 275.67252 
L 344.2176 248.42376 
L 387.072 221.175 
L 429.9264 193.92624 
L 472.7808 166.67748 
L 515.6352 139.42872 
L 558.4896 112.17996 
L 601.344 84.9312 
L 644.1984 57.68244 
L 687.0528 30.43368 
L 729.9072 3.18492 
L 736.488866 -1 
" clip-path="url(#p51dd7766d0)" style="fill: none; stroke: #0000ff; stroke-width: 1.5; stroke-linecap: square"/>
    <defs>
     <path id="m55beee60b9" d="M -3 3 
L 3 -3 
M -3 -3 
L 3 3 
" style="stroke: #0000ff"/>
    </defs>
    <g clip-path="url(#p51dd7766d0)">
     <use xlink:href="#m55beee60b9" x="172.8" y="357.4188" style="fill: #0000ff; stroke: #0000ff"/>
     <use xlink:href="#m55beee60b9" x="215.6544" y="330.17004" style="fill: #0000ff; stroke: #0000ff"/>
     <use xlink:href="#m55beee60b9" x="258.5088" y="302.92128" style="fill: #0000ff; stroke: #0000ff"/>
     <use xlink:href="#m55beee60b9" x="301.3632" y="275.67252" style="fill: #0000ff; stroke: #0000ff"/>
     <use xlink:href="#m55beee60b9" x="344.2176" y="248.42376" style="fill: #0000ff; stroke: #0000ff"/>
     <use xlink:href="#m55beee60b9" x="387.072" y="221.175" style="fill: #0000ff; stroke: #0000ff"/>
     <use xlink:href="#m55beee60b9" x="429.9264" y="193.92624" style="fill: #0000ff; stroke: #0000ff"/>
     <use xlink:href="#m55beee60b9" x="472.7808" y="166.67748" style="fill: #0000ff; stroke: #0000ff"/>
     <use xlink:href="#m55beee60b9" x="515.6352" y="139.42872" style="fill: #0000ff; stroke: #0000ff"/>
     <use xlink:href="#m55beee60b9" x="558.4896" y="112.17996" style="fill: #0000ff; stroke: #0000ff"/>
     <use xlink:href="#m55beee60b9" x="601.344" y="84.9312" style="fill: #0000ff; stroke: #0000ff"/>
     <use xlink:href="#m55beee60b9" x="644.1984" y="57.68244" style="fill: #0000ff; stroke: #0000ff"/>
     <use xlink:href="#m55beee60b9" x="687.0528" y="30.43368" style="fill: #0000ff; stroke: #0000ff"/>
     <use xlink:href="#m55beee60b9" x="729.9072" y="3.18492" style="fill: #0000ff; stroke: #0000ff"/>
     <use xlink:href="#m55beee60b9" x="736.488866" y="-1" style="fill: #0000ff; stroke: #0000ff"/>
    </g>
   </g>
   <g id="line2d_18">
    <path d="M 172.8 357.4188 
L 215.6544 330.351698 
L 258.5088 304.374547 
L 301.3632 280.577297 
L 344.2176 260.049898 
L 387.072 243.8823 
L 429.9264 233.164454 
L 472.7808 228.986311 
L 515.6352 232.437821 
L 558.4896 244.608934 
L 601.344 266.5896 
L 644.1984 299.46977 
L 687.0528 344.339395 
L 729.9072 402.288425 
L 772.7616 474.40681 
L 815.616 561.7845 
L 858.4704 665.511446 
L 873.766675 708.76 
" clip-path="url(#p51dd7766d0)" style="fill: none; stroke-dasharray: 9.6,2.4,1.5,2.4; stroke-dashoffset: 0; stroke: #000000; stroke-width: 1.5"/>
    <defs>
     <path id="m1f26edc7fa" d="M -0 3 
L 3 -3 
L -3 -3 
z
" style="stroke: #000000; stroke-linejoin: miter"/>
    </defs>
    <g clip-path="url(#p51dd7766d0)">
     <use xlink:href="#m1f26edc7fa" x="172.8" y="357.4188" style="stroke: #000000; stroke-linejoin: miter"/>
     <use xlink:href="#m1f26edc7fa" x="215.6544" y="330.351698" style="stroke: #000000; stroke-linejoin: miter"/>
     <use xlink:href="#m1f26edc7fa" x="258.5088" y="304.374547" style="stroke: #000000; stroke-linejoin: miter"/>
     <use xlink:href="#m1f26edc7fa" x="301.3632" y="280.577297" style="stroke: #000000; stroke-linejoin: miter"/>
     <use xlink:href="#m1f26edc7fa" x="344.2176" y="260.049898" style="stroke: #000000; stroke-linejoin: miter"/>
     <use xlink:href="#m1f26edc7fa" x="387.072" y="243.8823" style="stroke: #000000; stroke-linejoin: miter"/>
     <use xlink:href="#m1f26edc7fa" x="429.9264" y="233.164454" style="stroke: #000000; stroke-linejoin: miter"/>
     <use xlink:href="#m1f26edc7fa" x="472.7808" y="228.986311" style="stroke: #000000; stroke-linejoin: miter"/>
     <use xlink:href="#m1f26edc7fa" x="515.6352" y="232.437821" style="stroke: #000000; stroke-linejoin: miter"/>
     <use xlink:href="#m1f26edc7fa" x="558.4896" y="244.608934" style="stroke: #000000; stroke-linejoin: miter"/>
     <use xlink:href="#m1f26edc7fa" x="601.344" y="266.5896" style="stroke: #000000; stroke-linejoin: miter"/>
     <use xlink:href="#m1f26edc7fa" x="644.1984" y="299.46977" style="stroke: #000000; stroke-linejoin: miter"/>
     <use xlink:href="#m1f26edc7fa" x="687.0528" y="344.339395" style="stroke: #000000; stroke-linejoin: miter"/>
     <use xlink:href="#m1f26edc7fa" x="729.9072" y="402.288425" style="stroke: #000000; stroke-linejoin: miter"/>
     <use xlink:href="#m1f26edc7fa" x="772.7616" y="474.40681" style="stroke: #000000; stroke-linejoin: miter"/>
     <use xlink:href="#m1f26edc7fa" x="815.616" y="561.7845" style="stroke: #000000; stroke-linejoin: miter"/>
     <use xlink:href="#m1f26edc7fa" x="858.4704" y="665.511446" style="stroke: #000000; stroke-linejoin: miter"/>
     <use xlink:href="#m1f26edc7fa" x="901.3248" y="786.677599" style="stroke: #000000; stroke-linejoin: miter"/>
     <use xlink:href="#m1f26edc7fa" x="944.1792" y="926.372909" style="stroke: #000000; stroke-linejoin: miter"/>
     <use xlink:href="#m1f26edc7fa" x="987.0336" y="1085.687326" style="stroke: #000000; stroke-linejoin: miter"/>
     <use xlink:href="#m1f26edc7fa" x="1029.888" y="1265.7108" style="stroke: #000000; stroke-linejoin: miter"/>
     <use xlink:href="#m1f26edc7fa" x="1072.7424" y="1467.533282" style="stroke: #000000; stroke-linejoin: miter"/>
     <use xlink:href="#m1f26edc7fa" x="1115.5968" y="1692.244723" style="stroke: #000000; stroke-linejoin: miter"/>
     <use xlink:href="#m1f26edc7fa" x="1158.4512" y="1940.935073" style="stroke: #000000; stroke-linejoin: miter"/>
     <use xlink:href="#m1f26edc7fa" x="1201.3056" y="2214.694282" style="stroke: #000000; stroke-linejoin: miter"/>
    </g>
   </g>
   <g id="line2d_19">
    <path d="M 172.8 357.4188 
L 215.6544 330.351335 
L 258.5088 304.362921 
L 301.3632 280.489011 
L 344.2176 259.677861 
L 387.072 242.746935 
L 429.9264 230.339303 
L 472.7808 222.880046 
L 515.6352 220.532656 
L 558.4896 223.15544 
L 601.344 230.25792 
L 644.1984 240.957236 
L 687.0528 253.934549 
L 729.9072 267.39144 
L 772.7616 279.006315 
L 815.616 285.890805 
L 858.4704 284.54617 
L 901.3248 270.819698 
L 944.1792 239.86111 
L 987.0336 186.07896 
L 1029.888 103.09704 
L 1067.254243 -1 
" clip-path="url(#p51dd7766d0)" style="fill: none; stroke: #008000; stroke-width: 1.5; stroke-linecap: square"/>
   </g>
   <g id="patch_3">
    <path d="M 172.8 629.9064 
L 172.8 84.9312 
" style="fill: none; stroke: #000000; stroke-width: 0.8; stroke-linejoin: miter; stroke-linecap: square"/>
   </g>
   <g id="patch_4">
    <path d="M 1244.16 629.9064 
L 1244.16 84.9312 
" style="fill: none"/>
   </g>
   <g id="patch_5">
    <path d="M 172.8 357.4188 
L 1244.16 357.4188 
" style="fill: none; stroke: #000000; stroke-width: 0.8; stroke-linejoin: miter; stroke-linecap: square"/>
   </g>
   <g id="patch_6">
    <path d="M 172.8 84.9312 
L 1244.16 84.9312 
" style="fill: none"/>
   </g>
   <g id="patch_7">
    <path d="M 1025.892813 558.739978 
Q 921.753876 560.247768 818.732856 561.739372 
" style="fill: none; stroke: #000000; stroke-linecap: round"/>
    <path d="M 822.761391 563.681254 
L 818.732856 561.739372 
L 822.703482 559.681673 
" style="fill: none; stroke: #000000; stroke-linecap: round"/>
   </g>
   <g id="text_18">
    <!-- $x-\frac{x^3}{6}$ -->
    <g transform="translate(1029.888 561.7845)scale(0.1 -0.1)">
     <defs>
      <path id="DejaVuSans-Oblique-78" d="M 3841 3500 
L 2234 1784 
L 3219 0 
L 2559 0 
L 1819 1388 
L 531 0 
L -166 0 
L 1556 1844 
L 641 3500 
L 1300 3500 
L 1972 2234 
L 3144 3500 
L 3841 3500 
z
" transform="scale(0.015625)"/>
      <path id="DejaVuSans-2212" d="M 678 2272 
L 4684 2272 
L 4684 1741 
L 678 1741 
L 678 2272 
z
" transform="scale(0.015625)"/>
      <path id="DejaVuSans-33" d="M 2597 2516 
Q 3050 2419 3304 2112 
Q 3559 1806 3559 1356 
Q 3559 666 3084 287 
Q 2609 -91 1734 -91 
Q 1441 -91 1130 -33 
Q 819 25 488 141 
L 488 750 
Q 750 597 1062 519 
Q 1375 441 1716 441 
Q 2309 441 2620 675 
Q 2931 909 2931 1356 
Q 2931 1769 2642 2001 
Q 2353 2234 1838 2234 
L 1294 2234 
L 1294 2753 
L 1863 2753 
Q 2328 2753 2575 2939 
Q 2822 3125 2822 3475 
Q 2822 3834 2567 4026 
Q 2313 4219 1838 4219 
Q 1578 4219 1281 4162 
Q 984 4106 628 3988 
L 628 4550 
Q 988 4650 1302 4700 
Q 1616 4750 1894 4750 
Q 2613 4750 3031 4423 
Q 3450 4097 3450 3541 
Q 3450 3153 3228 2886 
Q 3006 2619 2597 2516 
z
" transform="scale(0.015625)"/>
      <path id="DejaVuSans-36" d="M 2113 2584 
Q 1688 2584 1439 2293 
Q 1191 2003 1191 1497 
Q 1191 994 1439 701 
Q 1688 409 2113 409 
Q 2538 409 2786 701 
Q 3034 994 3034 1497 
Q 3034 2003 2786 2293 
Q 2538 2584 2113 2584 
z
M 3366 4563 
L 3366 3988 
Q 3128 4100 2886 4159 
Q 2644 4219 2406 4219 
Q 1781 4219 1451 3797 
Q 1122 3375 1075 2522 
Q 1259 2794 1537 2939 
Q 1816 3084 2150 3084 
Q 2853 3084 3261 2657 
Q 3669 2231 3669 1497 
Q 3669 778 3244 343 
Q 2819 -91 2113 -91 
Q 1303 -91 875 529 
Q 447 1150 447 2328 
Q 447 3434 972 4092 
Q 1497 4750 2381 4750 
Q 2619 4750 2861 4703 
Q 3103 4656 3366 4563 
z
" transform="scale(0.015625)"/>
     </defs>
     <use xlink:href="#DejaVuSans-Oblique-78" transform="translate(0 0.039062)"/>
     <use xlink:href="#DejaVuSans-2212" transform="translate(78.662109 0.039062)"/>
     <use xlink:href="#DejaVuSans-Oblique-78" transform="translate(181.933594 43.835938)scale(0.7)"/>
     <use xlink:href="#DejaVuSans-33" transform="translate(226.485677 70.632812)scale(0.49)"/>
     <use xlink:href="#DejaVuSans-36" transform="translate(198.933594 -39.367188)scale(0.7)"/>
     <path d="M 181.933594 18.835938 
L 181.933594 25.085938 
L 259.575033 25.085938 
L 259.575033 18.835938 
L 181.933594 18.835938 
z
"/>
    </g>
   </g>
   <g id="text_19">
    <!-- $\sin(x)$的泰勒展开 -->
    <g transform="translate(661.62 78.9312)scale(0.12 -0.12)">
     <defs>
      <path id="DejaVuSans-73" d="M 2834 3397 
L 2834 2853 
Q 2591 2978 2328 3040 
Q 2066 3103 1784 3103 
Q 1356 3103 1142 2972 
Q 928 2841 928 2578 
Q 928 2378 1081 2264 
Q 1234 2150 1697 2047 
L 1894 2003 
Q 2506 1872 2764 1633 
Q 3022 1394 3022 966 
Q 3022 478 2636 193 
Q 2250 -91 1575 -91 
Q 1294 -91 989 -36 
Q 684 19 347 128 
L 347 722 
Q 666 556 975 473 
Q 1284 391 1588 391 
Q 1994 391 2212 530 
Q 2431 669 2431 922 
Q 2431 1156 2273 1281 
Q 2116 1406 1581 1522 
L 1381 1569 
Q 847 1681 609 1914 
Q 372 2147 372 2553 
Q 372 3047 722 3315 
Q 1072 3584 1716 3584 
Q 2034 3584 2315 3537 
Q 2597 3491 2834 3397 
z
" transform="scale(0.015625)"/>
      <path id="DejaVuSans-69" d="M 603 3500 
L 1178 3500 
L 1178 0 
L 603 0 
L 603 3500 
z
M 603 4863 
L 1178 4863 
L 1178 4134 
L 603 4134 
L 603 4863 
z
" transform="scale(0.015625)"/>
      <path id="DejaVuSans-6e" d="M 3513 2113 
L 3513 0 
L 2938 0 
L 2938 2094 
Q 2938 2591 2744 2837 
Q 2550 3084 2163 3084 
Q 1697 3084 1428 2787 
Q 1159 2491 1159 1978 
L 1159 0 
L 581 0 
L 581 3500 
L 1159 3500 
L 1159 2956 
Q 1366 3272 1645 3428 
Q 1925 3584 2291 3584 
Q 2894 3584 3203 3211 
Q 3513 2838 3513 2113 
z
" transform="scale(0.015625)"/>
      <path id="DejaVuSans-28" d="M 1984 4856 
Q 1566 4138 1362 3434 
Q 1159 2731 1159 2009 
Q 1159 1288 1364 580 
Q 1569 -128 1984 -844 
L 1484 -844 
Q 1016 -109 783 600 
Q 550 1309 550 2009 
Q 550 2706 781 3412 
Q 1013 4119 1484 4856 
L 1984 4856 
z
" transform="scale(0.015625)"/>
      <path id="DejaVuSans-29" d="M 513 4856 
L 1013 4856 
Q 1481 4119 1714 3412 
Q 1947 2706 1947 2009 
Q 1947 1309 1714 600 
Q 1481 -109 1013 -844 
L 513 -844 
Q 928 -128 1133 580 
Q 1338 1288 1338 2009 
Q 1338 2731 1133 3434 
Q 928 4138 513 4856 
z
" transform="scale(0.015625)"/>
      <path id="SimHei-7684" d="M 2100 4975 
Q 1975 4750 1750 3950 
L 2875 3950 
Q 2850 3525 2850 2875 
L 2850 675 
Q 2850 300 2875 -400 
L 2375 -400 
L 2375 100 
L 1100 100 
L 1100 -450 
L 600 -450 
Q 625 350 625 550 
L 625 2850 
Q 625 3525 600 3950 
L 1325 3950 
Q 1450 4525 1525 5150 
Q 1875 5025 2100 4975 
z
M 5825 3075 
Q 5800 1550 5700 175 
Q 5650 -275 5225 -425 
Q 4800 -575 4275 -625 
Q 4250 -350 4050 -50 
Q 4550 -75 4837 -25 
Q 5125 25 5200 200 
Q 5275 375 5312 1225 
Q 5350 2075 5375 3600 
L 3925 3600 
Q 3725 3125 3350 2475 
Q 3175 2650 2925 2750 
Q 3150 3050 3350 3475 
Q 3550 3900 3700 4400 
Q 3850 4900 3875 5175 
Q 4225 5025 4475 4950 
Q 4350 4750 4262 4512 
Q 4175 4275 4075 4050 
L 5850 4050 
Q 5825 3525 5825 3075 
z
M 2375 525 
L 2375 1850 
L 1100 1850 
L 1100 525 
L 2375 525 
z
M 2375 2275 
L 2375 3525 
L 1100 3525 
L 1100 2275 
L 2375 2275 
z
M 4350 2050 
Q 4500 1750 4700 1275 
Q 4525 1200 4225 1025 
Q 4050 1500 3900 1837 
Q 3750 2175 3600 2400 
Q 3775 2500 4050 2650 
L 4350 2050 
z
" transform="scale(0.015625)"/>
      <path id="SimHei-6cf0" d="M 2825 4525 
Q 2875 4950 2875 5225 
Q 3225 5150 3475 5100 
Q 3400 4950 3300 4525 
L 4800 4525 
Q 5150 4525 5575 4550 
L 5575 4125 
Q 5150 4150 4800 4150 
L 3225 4150 
Q 3175 3925 3100 3750 
L 4625 3750 
Q 4975 3750 5325 3775 
L 5325 3325 
Q 5000 3350 4600 3350 
L 2950 3350 
L 2750 2900 
L 5125 2900 
Q 5450 2900 5900 2925 
L 5900 2525 
Q 5450 2550 5125 2550 
L 4350 2550 
Q 4550 2275 4950 2025 
Q 5350 1775 6075 1650 
Q 5800 1425 5750 1200 
Q 4975 1425 4537 1787 
Q 4100 2150 3825 2550 
L 2525 2550 
Q 2200 2125 1737 1750 
Q 1275 1375 850 1150 
Q 725 1375 450 1525 
Q 875 1650 1287 1950 
Q 1700 2250 1975 2550 
L 1275 2550 
Q 950 2550 600 2525 
L 600 2925 
Q 950 2900 1300 2900 
L 2200 2900 
Q 2350 3125 2475 3350 
L 1750 3350 
Q 1450 3350 1100 3325 
L 1100 3775 
Q 1450 3750 1775 3750 
L 2625 3750 
Q 2700 3950 2750 4150 
L 1625 4150 
Q 1225 4150 825 4125 
L 825 4550 
Q 1225 4525 1775 4525 
L 2825 4525 
z
M 3475 2100 
Q 3425 1800 3425 1550 
L 3425 1025 
Q 3575 975 3775 875 
Q 4225 1400 4350 1675 
Q 4525 1550 4825 1425 
Q 4625 1250 4200 750 
Q 4775 475 5600 50 
Q 5375 -150 5275 -400 
Q 4425 175 3425 575 
L 3425 -150 
Q 3425 -400 3200 -500 
Q 2975 -600 2650 -650 
Q 2625 -425 2400 -150 
Q 3000 -225 2975 75 
L 2975 1525 
Q 2975 1800 2950 2100 
L 3475 2100 
z
M 2800 475 
Q 2375 275 1875 50 
Q 1375 -175 1000 -400 
Q 875 -150 675 75 
Q 1275 250 1762 462 
Q 2250 675 2775 925 
Q 2775 725 2800 475 
z
M 1875 1750 
Q 2250 1475 2575 1200 
Q 2325 1000 2175 825 
Q 1950 1175 1575 1450 
Q 1700 1550 1875 1750 
z
" transform="scale(0.015625)"/>
      <path id="SimHei-52d2" d="M 3375 550 
Q 3025 575 2650 575 
L 2125 575 
Q 2125 -125 2150 -525 
L 1625 -525 
Q 1650 -125 1650 575 
L 925 575 
Q 575 575 275 550 
L 275 1000 
Q 550 950 1100 950 
L 1650 950 
L 1650 1450 
L 475 1450 
Q 500 1700 500 2125 
Q 500 2575 475 2825 
L 1650 2825 
L 1650 3275 
L 975 3275 
Q 1000 3475 1000 4125 
Q 525 4125 250 4075 
L 250 4525 
Q 550 4500 1000 4500 
Q 1000 4950 975 5150 
L 1525 5150 
Q 1500 4975 1500 4500 
L 2275 4500 
Q 2275 4950 2225 5150 
L 2825 5150 
Q 2750 4950 2750 4725 
L 2750 4500 
Q 3100 4500 3400 4525 
L 3400 4100 
Q 3125 4125 2750 4125 
Q 2750 3475 2775 3275 
L 2125 3275 
L 2125 2825 
L 3275 2825 
Q 3250 2575 3250 2125 
Q 3250 1675 3275 1450 
L 2125 1450 
L 2125 950 
L 2675 950 
Q 3100 950 3375 975 
L 3375 550 
z
M 4875 -500 
Q 4825 -225 4625 100 
Q 5150 75 5312 100 
Q 5475 125 5512 625 
Q 5550 1125 5550 1950 
L 5550 3475 
L 4675 3475 
Q 4650 2675 4575 2087 
Q 4500 1500 4362 1062 
Q 4225 625 4000 250 
Q 3775 -125 3400 -600 
Q 3150 -400 2825 -300 
Q 3225 50 3475 425 
Q 3725 800 3862 1237 
Q 4000 1675 4062 2175 
Q 4125 2675 4175 3475 
L 3900 3475 
Q 3575 3475 3300 3425 
L 3300 3925 
Q 3575 3875 3900 3875 
L 4175 3875 
Q 4175 4250 4150 4525 
Q 4125 4800 4100 5125 
Q 4400 5075 4800 5050 
Q 4750 4850 4712 4550 
Q 4675 4250 4675 3875 
L 6125 3875 
Q 6075 3475 6075 2825 
L 6075 1150 
Q 6075 150 5987 -50 
Q 5900 -250 5650 -337 
Q 5400 -425 4875 -500 
z
M 1650 1825 
L 1650 2450 
L 1025 2450 
L 1025 1825 
L 1650 1825 
z
M 2275 3625 
L 2275 4125 
L 1500 4125 
L 1500 3625 
L 2275 3625 
z
M 2725 1825 
L 2725 2450 
L 2125 2450 
L 2125 1825 
L 2725 1825 
z
" transform="scale(0.015625)"/>
      <path id="SimHei-5c55" d="M 5450 5000 
Q 5425 4625 5425 4275 
Q 5425 3925 5450 3575 
L 4375 3575 
L 4375 2975 
L 4800 2975 
Q 5050 2975 5400 3000 
L 5400 2550 
Q 4975 2575 4825 2575 
L 4375 2575 
L 4375 1975 
L 5275 1975 
Q 5500 1975 5900 2000 
L 5900 1550 
Q 5500 1575 5300 1575 
L 3725 1575 
Q 3900 975 4325 625 
Q 4725 1050 4975 1475 
Q 5175 1325 5450 1175 
Q 5225 1025 4625 375 
Q 5200 -25 6025 -150 
Q 5825 -325 5700 -625 
Q 5000 -400 4562 -150 
Q 4125 100 3800 500 
Q 3475 900 3275 1575 
L 2600 1575 
L 2600 150 
Q 3125 450 3300 600 
Q 3350 325 3450 100 
Q 3300 25 2937 -200 
Q 2575 -425 2300 -675 
Q 2125 -425 1975 -250 
Q 2150 -50 2150 300 
L 2150 1575 
L 1350 1575 
Q 1275 800 1087 225 
Q 900 -350 725 -625 
Q 525 -450 325 -350 
Q 550 75 687 525 
Q 825 975 875 1475 
Q 925 1975 912 2587 
Q 900 3200 900 3650 
Q 900 4125 875 5000 
L 5450 5000 
z
M 4975 3975 
L 4975 4575 
L 1350 4575 
L 1350 3975 
L 4975 3975 
z
M 2500 1975 
L 2500 2575 
L 2250 2575 
Q 2025 2575 1625 2550 
L 1625 3000 
Q 2025 2975 2250 2975 
L 2500 2975 
L 2500 3575 
L 1350 3575 
L 1350 1975 
L 2500 1975 
z
M 3925 2975 
L 3925 3575 
L 2950 3575 
L 2950 2975 
L 3925 2975 
z
M 3925 1975 
L 3925 2575 
L 2950 2575 
L 2950 1975 
L 3925 1975 
z
" transform="scale(0.015625)"/>
      <path id="SimHei-5f00" d="M 2200 4450 
Q 1450 4450 800 4425 
L 800 4925 
Q 1425 4900 1950 4900 
L 4650 4900 
Q 5150 4900 5725 4925 
L 5725 4425 
Q 5175 4450 4500 4450 
L 4500 2600 
L 4975 2600 
Q 5475 2600 6050 2625 
L 6050 2125 
Q 5475 2175 4975 2175 
L 4500 2175 
L 4500 825 
Q 4500 200 4525 -575 
L 3950 -575 
Q 3975 200 3975 825 
L 3975 2175 
L 2725 2175 
Q 2650 1700 2525 1287 
Q 2400 875 2125 450 
Q 1850 25 1100 -575 
Q 900 -350 500 -150 
Q 1000 50 1362 412 
Q 1725 775 1937 1262 
Q 2150 1750 2175 2175 
L 1600 2175 
Q 950 2175 350 2100 
L 350 2625 
Q 975 2600 1600 2600 
L 2200 2600 
L 2200 4450 
z
M 3975 2600 
L 3975 4450 
L 2725 4450 
L 2725 2600 
L 3975 2600 
z
" transform="scale(0.015625)"/>
     </defs>
     <use xlink:href="#DejaVuSans-73" transform="translate(0 0.359375)"/>
     <use xlink:href="#DejaVuSans-69" transform="translate(52.099609 0.359375)"/>
     <use xlink:href="#DejaVuSans-6e" transform="translate(79.882812 0.359375)"/>
     <use xlink:href="#DejaVuSans-28" transform="translate(143.261719 0.359375)"/>
     <use xlink:href="#DejaVuSans-Oblique-78" transform="translate(182.275391 0.359375)"/>
     <use xlink:href="#DejaVuSans-29" transform="translate(241.455078 0.359375)"/>
     <use xlink:href="#SimHei-7684" transform="translate(280.46875 0.359375)"/>
     <use xlink:href="#SimHei-6cf0" transform="translate(380.46875 0.359375)"/>
     <use xlink:href="#SimHei-52d2" transform="translate(480.46875 0.359375)"/>
     <use xlink:href="#SimHei-5c55" transform="translate(580.46875 0.359375)"/>
     <use xlink:href="#SimHei-5f00" transform="translate(680.46875 0.359375)"/>
    </g>
   </g>
   <g id="legend_1">
    <g id="patch_8">
     <path d="M 179.8 624.9064 
L 265.9 624.9064 
Q 267.9 624.9064 267.9 622.9064 
L 267.9 557.0564 
Q 267.9 555.0564 265.9 555.0564 
L 179.8 555.0564 
Q 177.8 555.0564 177.8 557.0564 
L 177.8 622.9064 
Q 177.8 624.9064 179.8 624.9064 
z
" style="fill: #ffffff; opacity: 0.8; stroke: #cccccc; stroke-linejoin: miter"/>
    </g>
    <g id="line2d_20">
     <path d="M 181.8 563.1564 
L 191.8 563.1564 
L 201.8 563.1564 
" style="fill: none; stroke-dasharray: 5.55,2.4; stroke-dashoffset: 0; stroke: #ff0000; stroke-width: 1.5"/>
     <g>
      <use xlink:href="#mb599864622" x="191.8" y="563.1564" style="fill: #ff0000; stroke: #ff0000"/>
     </g>
    </g>
    <g id="text_20">
     <!-- $\sin(x)$ -->
     <g transform="translate(209.8 566.6564)scale(0.1 -0.1)">
      <use xlink:href="#DejaVuSans-73" transform="translate(0 0.015625)"/>
      <use xlink:href="#DejaVuSans-69" transform="translate(52.099609 0.015625)"/>
      <use xlink:href="#DejaVuSans-6e" transform="translate(79.882812 0.015625)"/>
      <use xlink:href="#DejaVuSans-28" transform="translate(143.261719 0.015625)"/>
      <use xlink:href="#DejaVuSans-Oblique-78" transform="translate(182.275391 0.015625)"/>
      <use xlink:href="#DejaVuSans-29" transform="translate(241.455078 0.015625)"/>
     </g>
    </g>
    <g id="line2d_21">
     <path d="M 181.8 576.5564 
L 191.8 576.5564 
L 201.8 576.5564 
" style="fill: none; stroke: #0000ff; stroke-width: 1.5; stroke-linecap: square"/>
     <g>
      <use xlink:href="#m55beee60b9" x="191.8" y="576.5564" style="fill: #0000ff; stroke: #0000ff"/>
     </g>
    </g>
    <g id="text_21">
     <!-- $x$ -->
     <g transform="translate(209.8 580.0564)scale(0.1 -0.1)">
      <use xlink:href="#DejaVuSans-Oblique-78" transform="translate(0 0.3125)"/>
     </g>
    </g>
    <g id="line2d_22">
     <path d="M 181.8 593.5064 
L 191.8 593.5064 
L 201.8 593.5064 
" style="fill: none; stroke-dasharray: 9.6,2.4,1.5,2.4; stroke-dashoffset: 0; stroke: #000000; stroke-width: 1.5"/>
     <g>
      <use xlink:href="#m1f26edc7fa" x="191.8" y="593.5064" style="stroke: #000000; stroke-linejoin: miter"/>
     </g>
    </g>
    <g id="text_22">
     <!-- $x-\frac{x^3}{6}$ -->
     <g transform="translate(209.8 597.0064)scale(0.1 -0.1)">
      <use xlink:href="#DejaVuSans-Oblique-78" transform="translate(0 0.039062)"/>
      <use xlink:href="#DejaVuSans-2212" transform="translate(78.662109 0.039062)"/>
      <use xlink:href="#DejaVuSans-Oblique-78" transform="translate(181.933594 43.835938)scale(0.7)"/>
      <use xlink:href="#DejaVuSans-33" transform="translate(226.485677 70.632812)scale(0.49)"/>
      <use xlink:href="#DejaVuSans-36" transform="translate(198.933594 -39.367188)scale(0.7)"/>
      <path d="M 181.933594 18.835938 
L 181.933594 25.085938 
L 259.575033 25.085938 
L 259.575033 18.835938 
L 181.933594 18.835938 
z
"/>
     </g>
    </g>
    <g id="line2d_23">
     <path d="M 181.8 613.3064 
L 191.8 613.3064 
L 201.8 613.3064 
" style="fill: none; stroke: #008000; stroke-width: 1.5; stroke-linecap: square"/>
    </g>
    <g id="text_23">
     <!-- $x-\frac{x^3}{6}+\frac{x^5}{120}$ -->
     <g transform="translate(209.8 616.8064)scale(0.1 -0.1)">
      <defs>
       <path id="DejaVuSans-2b" d="M 2944 4013 
L 2944 2272 
L 4684 2272 
L 4684 1741 
L 2944 1741 
L 2944 0 
L 2419 0 
L 2419 1741 
L 678 1741 
L 678 2272 
L 2419 2272 
L 2419 4013 
L 2944 4013 
z
" transform="scale(0.015625)"/>
       <path id="DejaVuSans-35" d="M 691 4666 
L 3169 4666 
L 3169 4134 
L 1269 4134 
L 1269 2991 
Q 1406 3038 1543 3061 
Q 1681 3084 1819 3084 
Q 2600 3084 3056 2656 
Q 3513 2228 3513 1497 
Q 3513 744 3044 326 
Q 2575 -91 1722 -91 
Q 1428 -91 1123 -41 
Q 819 9 494 109 
L 494 744 
Q 775 591 1075 516 
Q 1375 441 1709 441 
Q 2250 441 2565 725 
Q 2881 1009 2881 1497 
Q 2881 1984 2565 2268 
Q 2250 2553 1709 2553 
Q 1456 2553 1204 2497 
Q 953 2441 691 2322 
L 691 4666 
z
" transform="scale(0.015625)"/>
       <path id="DejaVuSans-31" d="M 794 531 
L 1825 531 
L 1825 4091 
L 703 3866 
L 703 4441 
L 1819 4666 
L 2450 4666 
L 2450 531 
L 3481 531 
L 3481 0 
L 794 0 
L 794 531 
z
" transform="scale(0.015625)"/>
       <path id="DejaVuSans-32" d="M 1228 531 
L 3431 531 
L 3431 0 
L 469 0 
L 469 531 
Q 828 903 1448 1529 
Q 2069 2156 2228 2338 
Q 2531 2678 2651 2914 
Q 2772 3150 2772 3378 
Q 2772 3750 2511 3984 
Q 2250 4219 1831 4219 
Q 1534 4219 1204 4116 
Q 875 4013 500 3803 
L 500 4441 
Q 881 4594 1212 4672 
Q 1544 4750 1819 4750 
Q 2544 4750 2975 4387 
Q 3406 4025 3406 3419 
Q 3406 3131 3298 2873 
Q 3191 2616 2906 2266 
Q 2828 2175 2409 1742 
Q 1991 1309 1228 531 
z
" transform="scale(0.015625)"/>
       <path id="DejaVuSans-30" d="M 2034 4250 
Q 1547 4250 1301 3770 
Q 1056 3291 1056 2328 
Q 1056 1369 1301 889 
Q 1547 409 2034 409 
Q 2525 409 2770 889 
Q 3016 1369 3016 2328 
Q 3016 3291 2770 3770 
Q 2525 4250 2034 4250 
z
M 2034 4750 
Q 2819 4750 3233 4129 
Q 3647 3509 3647 2328 
Q 3647 1150 3233 529 
Q 2819 -91 2034 -91 
Q 1250 -91 836 529 
Q 422 1150 422 2328 
Q 422 3509 836 4129 
Q 1250 4750 2034 4750 
z
" transform="scale(0.015625)"/>
      </defs>
      <use xlink:href="#DejaVuSans-Oblique-78" transform="translate(0 0.039062)"/>
      <use xlink:href="#DejaVuSans-2212" transform="translate(78.662109 0.039062)"/>
      <use xlink:href="#DejaVuSans-Oblique-78" transform="translate(181.933594 43.835938)scale(0.7)"/>
      <use xlink:href="#DejaVuSans-33" transform="translate(226.485677 70.632812)scale(0.49)"/>
      <use xlink:href="#DejaVuSans-36" transform="translate(198.933594 -39.367188)scale(0.7)"/>
      <use xlink:href="#DejaVuSans-2b" transform="translate(291.557454 0.039062)"/>
      <use xlink:href="#DejaVuSans-Oblique-78" transform="translate(422.828939 43.835938)scale(0.7)"/>
      <use xlink:href="#DejaVuSans-35" transform="translate(467.381022 70.632812)scale(0.49)"/>
      <use xlink:href="#DejaVuSans-31" transform="translate(394.828939 -39.367188)scale(0.7)"/>
      <use xlink:href="#DejaVuSans-32" transform="translate(439.365072 -39.367188)scale(0.7)"/>
      <use xlink:href="#DejaVuSans-30" transform="translate(483.901204 -39.367188)scale(0.7)"/>
      <path d="M 181.933594 18.835938 
L 181.933594 25.085938 
L 259.575033 25.085938 
L 259.575033 18.835938 
L 181.933594 18.835938 
z
"/>
      <path d="M 394.828939 18.835938 
L 394.828939 25.085938 
L 528.437337 25.085938 
L 528.437337 18.835938 
L 394.828939 18.835938 
z
"/>
     </g>
    </g>
   </g>
  </g>
 </g>
 <defs>
  <clipPath id="p51dd7766d0">
   <rect x="172.8" y="84.9312" width="1071.36" height="544.9752"/>
  </clipPath>
 </defs>
</svg>
